<svg xmlns="http://www.w3.org/2000/svg" xmlns:xlink="http://www.w3.org/1999/xlink" viewBox="-32 -31.99993896484375 489.8106994628906 970.8001098632812" preserveAspectRatio="xMidYMid meet" style="width: 100%; height: 100%;">
<g id="graph0" class="graph" transform="scale(1 1) rotate(0) translate(14.4 892.4)">
<title>G</title>
<polygon fill="#ffffff" stroke="transparent" points="-14.4,14.4 -14.4,-892.4 411.4107,-892.4 411.4107,14.4 -14.4,14.4"/>
<!-- analysis -->
<g id="node1" class="node">
<title>analysis</title>
<path fill="#f28e2b" stroke="#000000" d="M216.7442,-40C216.7442,-40 185.2558,-40 185.2558,-40 179.2558,-40 173.2558,-34 173.2558,-28 173.2558,-28 173.2558,-16 173.2558,-16 173.2558,-10 179.2558,-4 185.2558,-4 185.2558,-4 216.7442,-4 216.7442,-4 222.7442,-4 228.7442,-10 228.7442,-16 228.7442,-16 228.7442,-28 228.7442,-28 228.7442,-34 222.7442,-40 216.7442,-40"/>
<path fill="none" stroke="#000000" d="M220.7271,-44C220.7271,-44 181.2729,-44 181.2729,-44 175.2729,-44 169.2729,-38 169.2729,-32 169.2729,-32 169.2729,-12 169.2729,-12 169.2729,-6 175.2729,0 181.2729,0 181.2729,0 220.7271,0 220.7271,0 226.7271,0 232.7271,-6 232.7271,-12 232.7271,-12 232.7271,-32 232.7271,-32 232.7271,-38 226.7271,-44 220.7271,-44"/>
<text text-anchor="middle" x="201" y="-18.7" font-family="Helvetica,sans-Serif" font-size="11.00" fill="#000000">analysis</text>
</g>
<!-- dataset -->
<g id="node3" class="node">
<title>dataset</title>
<path fill="#59a14f" stroke="#000000" d="M216,-174.8C216,-174.8 186,-174.8 186,-174.8 180,-174.8 174,-168.8 174,-162.8 174,-162.8 174,-150.8 174,-150.8 174,-144.8 180,-138.8 186,-138.8 186,-138.8 216,-138.8 216,-138.8 222,-138.8 228,-144.8 228,-150.8 228,-150.8 228,-162.8 228,-162.8 228,-168.8 222,-174.8 216,-174.8"/>
<path fill="none" stroke="#000000" d="M220,-178.8C220,-178.8 182,-178.8 182,-178.8 176,-178.8 170,-172.8 170,-166.8 170,-166.8 170,-146.8 170,-146.8 170,-140.8 176,-134.8 182,-134.8 182,-134.8 220,-134.8 220,-134.8 226,-134.8 232,-140.8 232,-146.8 232,-146.8 232,-166.8 232,-166.8 232,-172.8 226,-178.8 220,-178.8"/>
<text text-anchor="middle" x="201" y="-153.5" font-family="Helvetica,sans-Serif" font-size="11.00" fill="#000000">dataset</text>
</g>
<!-- analysis&#45;&gt;dataset -->
<g id="edge1" class="edge">
<title>analysis-&gt;dataset</title>
<path fill="none" stroke="#4a6cf7" d="M176.4093,-49.7575C168.996,-59.8376 161.8155,-71.7719 157.9893,-84 153.0028,-99.9365 160.9394,-116.0839 171.2993,-129.1083"/>
<polygon fill="#4a6cf7" stroke="#4a6cf7" points="176.5238,-49.6079 183.2792,-45.9627 178.6507,-46.8282 180.7775,-44.0486 180.7775,-44.0486 180.7775,-44.0486 178.6507,-46.8282 178.2758,-42.1344 176.5238,-49.6079 176.5238,-49.6079"/>
<polygon fill="#4a6cf7" stroke="#4a6cf7" points="169.4632,-130.7313 175.857,-134.4893 173.2023,-127.5644 169.4632,-130.7313"/>
<text text-anchor="middle" x="172.0054" y="-86.7" font-family="Helvetica,sans-Serif" font-size="9.00" fill="#000000">part_of</text>
</g>
<!-- sample -->
<g id="node9" class="node">
<title>sample</title>
<path fill="#e15759" stroke="#000000" d="M231,-612.4C231,-612.4 201,-612.4 201,-612.4 195,-612.4 189,-606.4 189,-600.4 189,-600.4 189,-588.4 189,-588.4 189,-582.4 195,-576.4 201,-576.4 201,-576.4 231,-576.4 231,-576.4 237,-576.4 243,-582.4 243,-588.4 243,-588.4 243,-600.4 243,-600.4 243,-606.4 237,-612.4 231,-612.4"/>
<path fill="none" stroke="#000000" d="M235,-616.4C235,-616.4 197,-616.4 197,-616.4 191,-616.4 185,-610.4 185,-604.4 185,-604.4 185,-584.4 185,-584.4 185,-578.4 191,-572.4 197,-572.4 197,-572.4 235,-572.4 235,-572.4 241,-572.4 247,-578.4 247,-584.4 247,-584.4 247,-604.4 247,-604.4 247,-610.4 241,-616.4 235,-616.4"/>
<text text-anchor="middle" x="216" y="-591.1" font-family="Helvetica,sans-Serif" font-size="11.00" fill="#000000">sample</text>
</g>
<!-- analysis&#45;&gt;sample -->
<g id="edge3" class="edge">
<title>analysis-&gt;sample</title>
<path fill="none" stroke="#4a6cf7" d="M162.2638,-29.6401C103.859,-43.6671 0,-79.4809 0,-156.8 0,-156.8 0,-156.8 0,-426.4 0,-479.0718 13.1661,-497.9387 53,-532.4 95.835,-569.4576 121.8507,-550.2968 174,-572.4 175.3073,-572.9541 176.6292,-573.5334 177.9577,-574.1321"/>
<polygon fill="#4a6cf7" stroke="#4a6cf7" points="162.3334,-29.624 169.8655,-31.1041 165.7422,-28.8301 169.151,-28.0362 169.151,-28.0362 169.151,-28.0362 165.7422,-28.8301 168.4364,-24.9683 162.3334,-29.624 162.3334,-29.624"/>
<polygon fill="#4a6cf7" stroke="#4a6cf7" points="177.241,-576.5021 184.6187,-577.2586 179.3231,-572.0664 177.241,-576.5021"/>
<text text-anchor="middle" x="28.0071" y="-288.9" font-family="Helvetica,sans-Serif" font-size="9.00" fill="#000000">performed_on</text>
</g>
<!-- study -->
<g id="node10" class="node">
<title>study</title>
<path fill="#59a14f" stroke="#000000" d="M336,-612.4C336,-612.4 306,-612.4 306,-612.4 300,-612.4 294,-606.4 294,-600.4 294,-600.4 294,-588.4 294,-588.4 294,-582.4 300,-576.4 306,-576.4 306,-576.4 336,-576.4 336,-576.4 342,-576.4 348,-582.4 348,-588.4 348,-588.4 348,-600.4 348,-600.4 348,-606.4 342,-612.4 336,-612.4"/>
<path fill="none" stroke="#000000" d="M340,-616.4C340,-616.4 302,-616.4 302,-616.4 296,-616.4 290,-610.4 290,-604.4 290,-604.4 290,-584.4 290,-584.4 290,-578.4 296,-572.4 302,-572.4 302,-572.4 340,-572.4 340,-572.4 346,-572.4 352,-578.4 352,-584.4 352,-584.4 352,-604.4 352,-604.4 352,-610.4 346,-616.4 340,-616.4"/>
<text text-anchor="middle" x="321" y="-591.1" font-family="Helvetica,sans-Serif" font-size="11.00" fill="#000000">study</text>
</g>
<!-- analysis&#45;&gt;study -->
<g id="edge2" class="edge">
<title>analysis-&gt;study</title>
<path fill="none" stroke="#4a6cf7" d="M239.7857,-33.918C289.4024,-51.8575 369,-90.9056 369,-156.8 369,-156.8 369,-156.8 369,-426.4 369,-476.8086 348.7737,-532.565 334.5804,-565.4849"/>
<polygon fill="#4a6cf7" stroke="#4a6cf7" points="239.5974,-33.8518 234.0415,-28.5551 236.2962,-32.689 232.995,-31.5262 232.995,-31.5262 232.995,-31.5262 236.2962,-32.689 231.9484,-34.4973 239.5974,-33.8518 239.5974,-33.8518"/>
<polygon fill="#4a6cf7" stroke="#4a6cf7" points="332.2236,-564.7585 331.6528,-572.1529 336.7102,-566.7284 332.2236,-564.7585"/>
<text text-anchor="middle" x="383.0054" y="-288.9" font-family="Helvetica,sans-Serif" font-size="9.00" fill="#000000">part_of</text>
</g>
<!-- dac -->
<g id="node2" class="node">
<title>dac</title>
<path fill="#4e79a7" stroke="#000000" d="M121,-528.4C121,-528.4 91,-528.4 91,-528.4 85,-528.4 79,-522.4 79,-516.4 79,-516.4 79,-504.4 79,-504.4 79,-498.4 85,-492.4 91,-492.4 91,-492.4 121,-492.4 121,-492.4 127,-492.4 133,-498.4 133,-504.4 133,-504.4 133,-516.4 133,-516.4 133,-522.4 127,-528.4 121,-528.4"/>
<path fill="none" stroke="#000000" d="M125,-532.4C125,-532.4 87,-532.4 87,-532.4 81,-532.4 75,-526.4 75,-520.4 75,-520.4 75,-500.4 75,-500.4 75,-494.4 81,-488.4 87,-488.4 87,-488.4 125,-488.4 125,-488.4 131,-488.4 137,-494.4 137,-500.4 137,-500.4 137,-520.4 137,-520.4 137,-526.4 131,-532.4 125,-532.4"/>
<text text-anchor="middle" x="106" y="-507.1" font-family="Helvetica,sans-Serif" font-size="11.00" fill="#000000">dac</text>
</g>
<!-- project -->
<g id="node7" class="node">
<title>project</title>
<path fill="#4e79a7" stroke="#000000" d="M231,-747.2C231,-747.2 201,-747.2 201,-747.2 195,-747.2 189,-741.2 189,-735.2 189,-735.2 189,-723.2 189,-723.2 189,-717.2 195,-711.2 201,-711.2 201,-711.2 231,-711.2 231,-711.2 237,-711.2 243,-717.2 243,-723.2 243,-723.2 243,-735.2 243,-735.2 243,-741.2 237,-747.2 231,-747.2"/>
<path fill="none" stroke="#000000" d="M235,-751.2C235,-751.2 197,-751.2 197,-751.2 191,-751.2 185,-745.2 185,-739.2 185,-739.2 185,-719.2 185,-719.2 185,-713.2 191,-707.2 197,-707.2 197,-707.2 235,-707.2 235,-707.2 241,-707.2 247,-713.2 247,-719.2 247,-719.2 247,-739.2 247,-739.2 247,-745.2 241,-751.2 235,-751.2"/>
<text text-anchor="middle" x="216" y="-725.9" font-family="Helvetica,sans-Serif" font-size="11.00" fill="#000000">Project</text>
</g>
<!-- dac&#45;&gt;project -->
<g id="edge4" class="edge">
<title>dac-&gt;project</title>
<path fill="none" stroke="#4a6cf7" d="M106.628,-532.4625C107.9834,-554.5909 112.1122,-589.1962 124.4944,-616.4 139.4215,-649.195 166.1936,-680.5227 186.9371,-701.8038"/>
<polygon fill="#4a6cf7" stroke="#4a6cf7" points="185.4054,-703.7392 192.0701,-706.9926 188.8889,-700.2931 185.4054,-703.7392"/>
<text text-anchor="middle" x="144.2528" y="-591.7" font-family="Helvetica,sans-Serif" font-size="9.00" fill="#000000">describes</text>
</g>
<!-- dataset&#45;&gt;analysis -->
<g id="edge6" class="edge">
<title>dataset-&gt;analysis</title>
<path fill="none" stroke="#a0a0a0" stroke-dasharray="5,2" d="M201,-134.5075C201,-111.7629 201,-76.3505 201,-51.3398"/>
<polygon fill="#a0a0a0" stroke="#a0a0a0" points="203.4501,-51.2594 201,-44.2595 198.5501,-51.2595 203.4501,-51.2594"/>
<text text-anchor="middle" x="220.2528" y="-86.7" font-family="Helvetica,sans-Serif" font-size="9.00" fill="#000000">describes</text>
</g>
<!-- policy -->
<g id="node5" class="node">
<title>policy</title>
<path fill="#4e79a7" stroke="#000000" d="M145,-309.6C145,-309.6 115,-309.6 115,-309.6 109,-309.6 103,-303.6 103,-297.6 103,-297.6 103,-285.6 103,-285.6 103,-279.6 109,-273.6 115,-273.6 115,-273.6 145,-273.6 145,-273.6 151,-273.6 157,-279.6 157,-285.6 157,-285.6 157,-297.6 157,-297.6 157,-303.6 151,-309.6 145,-309.6"/>
<path fill="none" stroke="#000000" d="M149,-313.6C149,-313.6 111,-313.6 111,-313.6 105,-313.6 99,-307.6 99,-301.6 99,-301.6 99,-281.6 99,-281.6 99,-275.6 105,-269.6 111,-269.6 111,-269.6 149,-269.6 149,-269.6 155,-269.6 161,-275.6 161,-281.6 161,-281.6 161,-301.6 161,-301.6 161,-307.6 155,-313.6 149,-313.6"/>
<text text-anchor="middle" x="130" y="-288.3" font-family="Helvetica,sans-Serif" font-size="11.00" fill="#000000">policy</text>
</g>
<!-- dataset&#45;&gt;policy -->
<g id="edge7" class="edge">
<title>dataset-&gt;policy</title>
<path fill="none" stroke="#4a6cf7" d="M173.3652,-178.8036C161.6835,-189.6043 149.0563,-203.5654 141.4944,-218.8 134.8703,-232.1452 131.8941,-248.4111 130.6177,-262.1801"/>
<polygon fill="#4a6cf7" stroke="#4a6cf7" points="128.1465,-262.3759 130.0711,-269.5382 133.033,-262.739 128.1465,-262.3759"/>
<text text-anchor="middle" x="161.2528" y="-221.5" font-family="Helvetica,sans-Serif" font-size="9.00" fill="#000000">describes</text>
</g>
<!-- run -->
<g id="node8" class="node">
<title>run</title>
<path fill="#76b7b2" stroke="#000000" d="M261,-309.6C261,-309.6 231,-309.6 231,-309.6 225,-309.6 219,-303.6 219,-297.6 219,-297.6 219,-285.6 219,-285.6 219,-279.6 225,-273.6 231,-273.6 231,-273.6 261,-273.6 261,-273.6 267,-273.6 273,-279.6 273,-285.6 273,-285.6 273,-297.6 273,-297.6 273,-303.6 267,-309.6 261,-309.6"/>
<path fill="none" stroke="#000000" d="M265,-313.6C265,-313.6 227,-313.6 227,-313.6 221,-313.6 215,-307.6 215,-301.6 215,-301.6 215,-281.6 215,-281.6 215,-275.6 221,-269.6 227,-269.6 227,-269.6 265,-269.6 265,-269.6 271,-269.6 277,-275.6 277,-281.6 277,-281.6 277,-301.6 277,-301.6 277,-307.6 271,-313.6 265,-313.6"/>
<text text-anchor="middle" x="246" y="-288.3" font-family="Helvetica,sans-Serif" font-size="11.00" fill="#000000">run</text>
</g>
<!-- dataset&#45;&gt;run -->
<g id="edge5" class="edge">
<title>dataset-&gt;run</title>
<path fill="none" stroke="#a0a0a0" stroke-dasharray="5,2" d="M227.9101,-178.9951C238.8369,-189.7378 250.2294,-203.5992 256,-218.8 261.2438,-232.613 259.6965,-248.8274 256.4294,-262.4435"/>
<polygon fill="#a0a0a0" stroke="#a0a0a0" points="254.0373,-261.9048 254.591,-269.3005 258.7702,-263.1737 254.0373,-261.9048"/>
<text text-anchor="middle" x="278.2528" y="-221.5" font-family="Helvetica,sans-Serif" font-size="9.00" fill="#000000">describes</text>
</g>
<!-- experiment -->
<g id="node4" class="node">
<title>experiment</title>
<path fill="#76b7b2" stroke="#000000" d="M269.3768,-444.4C269.3768,-444.4 222.6232,-444.4 222.6232,-444.4 216.6232,-444.4 210.6232,-438.4 210.6232,-432.4 210.6232,-432.4 210.6232,-420.4 210.6232,-420.4 210.6232,-414.4 216.6232,-408.4 222.6232,-408.4 222.6232,-408.4 269.3768,-408.4 269.3768,-408.4 275.3768,-408.4 281.3768,-414.4 281.3768,-420.4 281.3768,-420.4 281.3768,-432.4 281.3768,-432.4 281.3768,-438.4 275.3768,-444.4 269.3768,-444.4"/>
<path fill="none" stroke="#000000" d="M273.3971,-448.4C273.3971,-448.4 218.6029,-448.4 218.6029,-448.4 212.6029,-448.4 206.6029,-442.4 206.6029,-436.4 206.6029,-436.4 206.6029,-416.4 206.6029,-416.4 206.6029,-410.4 212.6029,-404.4 218.6029,-404.4 218.6029,-404.4 273.3971,-404.4 273.3971,-404.4 279.3971,-404.4 285.3971,-410.4 285.3971,-416.4 285.3971,-416.4 285.3971,-436.4 285.3971,-436.4 285.3971,-442.4 279.3971,-448.4 273.3971,-448.4"/>
<text text-anchor="middle" x="246" y="-423.1" font-family="Helvetica,sans-Serif" font-size="11.00" fill="#000000">experiment</text>
</g>
<!-- experiment&#45;&gt;sample -->
<g id="edge8" class="edge">
<title>experiment-&gt;sample</title>
<path fill="none" stroke="#4a6cf7" d="M226.3582,-454.5759C220.3589,-464.7584 214.5439,-476.6497 211.4944,-488.4 204.9261,-513.7085 207.0275,-543.542 210.2034,-565.1005"/>
<polygon fill="#4a6cf7" stroke="#4a6cf7" points="226.4394,-454.4432 232.781,-450.118 228.2669,-451.4582 230.0945,-448.4732 230.0945,-448.4732 230.0945,-448.4732 228.2669,-451.4582 227.4079,-446.8285 226.4394,-454.4432 226.4394,-454.4432"/>
<polygon fill="#4a6cf7" stroke="#4a6cf7" points="207.7934,-565.5466 211.3106,-572.0759 212.6328,-564.7784 207.7934,-565.5466"/>
<text text-anchor="middle" x="231.2528" y="-507.7" font-family="Helvetica,sans-Serif" font-size="9.00" fill="#000000">describes</text>
</g>
<!-- experiment&#45;&gt;study -->
<g id="edge9" class="edge">
<title>experiment-&gt;study</title>
<path fill="none" stroke="#4a6cf7" d="M258.9774,-455.4695C272.7592,-486.3405 294.4104,-534.8393 308.1452,-565.6053"/>
<polygon fill="#4a6cf7" stroke="#4a6cf7" points="258.813,-455.1011 258.8358,-447.425 257.3862,-451.9051 255.9594,-448.7091 255.9594,-448.7091 255.9594,-448.7091 257.3862,-451.9051 253.083,-449.9932 258.813,-455.1011 258.813,-455.1011"/>
<polygon fill="#4a6cf7" stroke="#4a6cf7" points="306.028,-566.873 311.1188,-572.2662 310.5024,-564.8755 306.028,-566.873"/>
<text text-anchor="middle" x="311.2528" y="-507.7" font-family="Helvetica,sans-Serif" font-size="9.00" fill="#000000">describes</text>
</g>
<!-- policy&#45;&gt;dac -->
<g id="edge10" class="edge">
<title>policy-&gt;dac</title>
<path fill="none" stroke="#4a6cf7" d="M127.5667,-313.7838C123.2093,-353.5086 114.0763,-436.7706 109.2111,-481.1257"/>
<polygon fill="#4a6cf7" stroke="#4a6cf7" points="106.7677,-480.932 108.4398,-488.1575 111.6385,-481.4664 106.7677,-480.932"/>
<text text-anchor="middle" x="143.2528" y="-356.3" font-family="Helvetica,sans-Serif" font-size="9.00" fill="#000000">describes</text>
</g>
<!-- program -->
<g id="node6" class="node">
<title>program</title>
<path fill="#4e79a7" stroke="#000000" d="M233.1665,-878C233.1665,-878 198.8335,-878 198.8335,-878 192.8335,-878 186.8335,-872 186.8335,-866 186.8335,-866 186.8335,-854 186.8335,-854 186.8335,-848 192.8335,-842 198.8335,-842 198.8335,-842 233.1665,-842 233.1665,-842 239.1665,-842 245.1665,-848 245.1665,-854 245.1665,-854 245.1665,-866 245.1665,-866 245.1665,-872 239.1665,-878 233.1665,-878"/>
<text text-anchor="middle" x="216" y="-856.7" font-family="Helvetica,sans-Serif" font-size="11.00" fill="#000000">Program</text>
</g>
<!-- project&#45;&gt;program -->
<g id="edge11" class="edge">
<title>project-&gt;program</title>
<path fill="none" stroke="#4a6cf7" d="M216,-758.6243C216,-781.4955 216,-812.8883 216,-834.6545"/>
<polygon fill="#4a6cf7" stroke="#4a6cf7" points="216.0001,-758.3884 219.15,-751.3884 216,-754.8884 216,-751.3884 216,-751.3884 216,-751.3884 216,-754.8884 212.85,-751.3885 216.0001,-758.3884 216.0001,-758.3884"/>
<polygon fill="#4a6cf7" stroke="#4a6cf7" points="213.5501,-834.9223 216,-841.9223 218.4501,-834.9223 213.5501,-834.9223"/>
<text text-anchor="middle" x="238.7525" y="-793.9" font-family="Helvetica,sans-Serif" font-size="9.00" fill="#000000">member_of</text>
</g>
<!-- run&#45;&gt;dataset -->
<g id="edge13" class="edge">
<title>run-&gt;dataset</title>
<path fill="none" stroke="#4a6cf7" d="M214.5192,-264.0545C205.4661,-254.1989 196.7552,-242.3469 191.9811,-229.6 186.808,-215.7877 188.1612,-199.5733 191.1946,-185.9571"/>
<polygon fill="#4a6cf7" stroke="#4a6cf7" points="214.7186,-264.2627 217.2864,-271.4966 217.1398,-266.7901 219.561,-269.3175 219.561,-269.3175 219.561,-269.3175 217.1398,-266.7901 221.8357,-267.1384 214.7186,-264.2627 214.7186,-264.2627"/>
<polygon fill="#4a6cf7" stroke="#4a6cf7" points="193.5879,-186.4852 192.9083,-179.1 188.8341,-185.2971 193.5879,-186.4852"/>
<text text-anchor="middle" x="219.0095" y="-221.5" font-family="Helvetica,sans-Serif" font-size="9.00" fill="#000000">composed_of</text>
</g>
<!-- run&#45;&gt;experiment -->
<g id="edge12" class="edge">
<title>run-&gt;experiment</title>
<path fill="none" stroke="#4a6cf7" d="M246,-320.9398C246,-343.508 246,-374.5456 246,-397.1031"/>
<polygon fill="#4a6cf7" stroke="#4a6cf7" points="246.0001,-320.8595 249.15,-313.8594 246,-317.3595 246,-313.8595 246,-313.8595 246,-313.8595 246,-317.3595 242.85,-313.8595 246.0001,-320.8595 246.0001,-320.8595"/>
<polygon fill="#4a6cf7" stroke="#4a6cf7" points="243.5501,-397.1074 246,-404.1075 248.4501,-397.1075 243.5501,-397.1074"/>
<text text-anchor="middle" x="273.0095" y="-356.3" font-family="Helvetica,sans-Serif" font-size="9.00" fill="#000000">composed_of</text>
</g>
<!-- sample&#45;&gt;project -->
<g id="edge14" class="edge">
<title>sample-&gt;project</title>
<path fill="none" stroke="#4a6cf7" d="M216,-623.7398C216,-646.308 216,-677.3456 216,-699.9031"/>
<polygon fill="#4a6cf7" stroke="#4a6cf7" points="216.0001,-623.6595 219.15,-616.6594 216,-620.1595 216,-616.6595 216,-616.6595 216,-616.6595 216,-620.1595 212.85,-616.6595 216.0001,-623.6595 216.0001,-623.6595"/>
<polygon fill="#4a6cf7" stroke="#4a6cf7" points="213.5501,-699.9074 216,-706.9075 218.4501,-699.9075 213.5501,-699.9074"/>
<text text-anchor="middle" x="235.2528" y="-659.1" font-family="Helvetica,sans-Serif" font-size="9.00" fill="#000000">describes</text>
</g>
<!-- study&#45;&gt;project -->
<g id="edge15" class="edge">
<title>study-&gt;project</title>
<path fill="none" stroke="#4a6cf7" d="M299.8447,-622.0782C289.3987,-635.6999 276.582,-652.346 265,-667.2 256.2448,-678.4286 246.5354,-690.7425 238.0842,-701.4165"/>
<polygon fill="#4a6cf7" stroke="#4a6cf7" points="299.908,-621.9956 306.6662,-618.3556 302.0369,-619.2175 304.1659,-616.4395 304.1659,-616.4395 304.1659,-616.4395 302.0369,-619.2175 301.6657,-614.5234 299.908,-621.9956 299.908,-621.9956"/>
<polygon fill="#4a6cf7" stroke="#4a6cf7" points="235.9598,-700.1525 233.5326,-707.1604 239.8003,-703.1957 235.9598,-700.1525"/>
<text text-anchor="middle" x="291.2528" y="-659.1" font-family="Helvetica,sans-Serif" font-size="9.00" fill="#000000">describes</text>
</g>
</g>
</svg>