<svg xmlns="http://www.w3.org/2000/svg" xmlns:xlink="http://www.w3.org/1999/xlink" viewBox="-32 -32 1775.741943359375 1342.0001220703125" preserveAspectRatio="xMidYMid meet" style="width: 100%; height: 100%;">
<g id="graph0" class="graph" transform="scale(1 1) rotate(0) translate(14.4 1263.6)">
<title>G</title>
<polygon fill="#ffffff" stroke="transparent" points="-14.4,14.4 -14.4,-1263.6 1697.3419,-1263.6 1697.3419,14.4 -14.4,14.4"/>
<!-- acknowledgement -->
<g id="node1" class="node">
<title>acknowledgement</title>
<path fill="#4e79a7" stroke="#000000" d="M647.2843,-983.6C647.2843,-983.6 565.5626,-983.6 565.5626,-983.6 559.5626,-983.6 553.5626,-977.6 553.5626,-971.6 553.5626,-971.6 553.5626,-959.6 553.5626,-959.6 553.5626,-953.6 559.5626,-947.6 565.5626,-947.6 565.5626,-947.6 647.2843,-947.6 647.2843,-947.6 653.2843,-947.6 659.2843,-953.6 659.2843,-959.6 659.2843,-959.6 659.2843,-971.6 659.2843,-971.6 659.2843,-977.6 653.2843,-983.6 647.2843,-983.6"/>
<path fill="none" stroke="#000000" d="M651.2792,-987.6C651.2792,-987.6 561.5677,-987.6 561.5677,-987.6 555.5677,-987.6 549.5677,-981.6 549.5677,-975.6 549.5677,-975.6 549.5677,-955.6 549.5677,-955.6 549.5677,-949.6 555.5677,-943.6 561.5677,-943.6 561.5677,-943.6 651.2792,-943.6 651.2792,-943.6 657.2792,-943.6 663.2792,-949.6 663.2792,-955.6 663.2792,-955.6 663.2792,-975.6 663.2792,-975.6 663.2792,-981.6 657.2792,-987.6 651.2792,-987.6"/>
<text text-anchor="middle" x="606.4235" y="-962.3" font-family="Helvetica,sans-Serif" font-size="11.00" fill="#000000">Acknowledgement</text>
</g>
<!-- project -->
<g id="node15" class="node">
<title>project</title>
<path fill="#4e79a7" stroke="#000000" d="M1010.4235,-1118.4C1010.4235,-1118.4 980.4235,-1118.4 980.4235,-1118.4 974.4235,-1118.4 968.4235,-1112.4 968.4235,-1106.4 968.4235,-1106.4 968.4235,-1094.4 968.4235,-1094.4 968.4235,-1088.4 974.4235,-1082.4 980.4235,-1082.4 980.4235,-1082.4 1010.4235,-1082.4 1010.4235,-1082.4 1016.4235,-1082.4 1022.4235,-1088.4 1022.4235,-1094.4 1022.4235,-1094.4 1022.4235,-1106.4 1022.4235,-1106.4 1022.4235,-1112.4 1016.4235,-1118.4 1010.4235,-1118.4"/>
<path fill="none" stroke="#000000" d="M1014.4235,-1122.4C1014.4235,-1122.4 976.4235,-1122.4 976.4235,-1122.4 970.4235,-1122.4 964.4235,-1116.4 964.4235,-1110.4 964.4235,-1110.4 964.4235,-1090.4 964.4235,-1090.4 964.4235,-1084.4 970.4235,-1078.4 976.4235,-1078.4 976.4235,-1078.4 1014.4235,-1078.4 1014.4235,-1078.4 1020.4235,-1078.4 1026.4235,-1084.4 1026.4235,-1090.4 1026.4235,-1090.4 1026.4235,-1110.4 1026.4235,-1110.4 1026.4235,-1116.4 1020.4235,-1122.4 1014.4235,-1122.4"/>
<text text-anchor="middle" x="995.4235" y="-1097.1" font-family="Helvetica,sans-Serif" font-size="11.00" fill="#000000">Project</text>
</g>
<!-- acknowledgement&#45;&gt;project -->
<g id="edge1" class="edge">
<title>acknowledgement-&gt;project</title>
<path fill="none" stroke="#4a6cf7" d="M663.6354,-987.6234C702.5912,-1002.4289 755.4149,-1022.1346 802.4053,-1038.4 855.7912,-1056.8792 918.111,-1076.5591 957.1748,-1088.6696"/>
<polygon fill="#4a6cf7" stroke="#4a6cf7" points="956.7794,-1091.1118 964.1909,-1090.8408 958.2281,-1086.4308 956.7794,-1091.1118"/>
<text text-anchor="middle" x="828.4326" y="-1030.3" font-family="Helvetica,sans-Serif" font-size="9.00" fill="#000000">contribute_to</text>
</g>
<!-- aligned_reads_index -->
<g id="node2" class="node">
<title>aligned_reads_index</title>
<path fill="#59a14f" stroke="#000000" d="M856.3874,-40C856.3874,-40 762.4595,-40 762.4595,-40 756.4595,-40 750.4595,-34 750.4595,-28 750.4595,-28 750.4595,-16 750.4595,-16 750.4595,-10 756.4595,-4 762.4595,-4 762.4595,-4 856.3874,-4 856.3874,-4 862.3874,-4 868.3874,-10 868.3874,-16 868.3874,-16 868.3874,-28 868.3874,-28 868.3874,-34 862.3874,-40 856.3874,-40"/>
<path fill="none" stroke="#000000" d="M860.4027,-44C860.4027,-44 758.4442,-44 758.4442,-44 752.4442,-44 746.4442,-38 746.4442,-32 746.4442,-32 746.4442,-12 746.4442,-12 746.4442,-6 752.4442,0 758.4442,0 758.4442,0 860.4027,0 860.4027,0 866.4027,0 872.4027,-6 872.4027,-12 872.4027,-12 872.4027,-32 872.4027,-32 872.4027,-38 866.4027,-44 860.4027,-44"/>
<text text-anchor="middle" x="809.4235" y="-18.7" font-family="Helvetica,sans-Serif" font-size="11.00" fill="#000000">Aligned Reads Index</text>
</g>
<!-- core_metadata_collection -->
<g id="node6" class="node">
<title>core_metadata_collection</title>
<path fill="#4e79a7" stroke="#000000" d="M917.4981,-309.6C917.4981,-309.6 801.3488,-309.6 801.3488,-309.6 795.3488,-309.6 789.3488,-303.6 789.3488,-297.6 789.3488,-297.6 789.3488,-285.6 789.3488,-285.6 789.3488,-279.6 795.3488,-273.6 801.3488,-273.6 801.3488,-273.6 917.4981,-273.6 917.4981,-273.6 923.4981,-273.6 929.4981,-279.6 929.4981,-285.6 929.4981,-285.6 929.4981,-297.6 929.4981,-297.6 929.4981,-303.6 923.4981,-309.6 917.4981,-309.6"/>
<path fill="none" stroke="#000000" d="M921.5002,-313.6C921.5002,-313.6 797.3467,-313.6 797.3467,-313.6 791.3467,-313.6 785.3467,-307.6 785.3467,-301.6 785.3467,-301.6 785.3467,-281.6 785.3467,-281.6 785.3467,-275.6 791.3467,-269.6 797.3467,-269.6 797.3467,-269.6 921.5002,-269.6 921.5002,-269.6 927.5002,-269.6 933.5002,-275.6 933.5002,-281.6 933.5002,-281.6 933.5002,-301.6 933.5002,-301.6 933.5002,-307.6 927.5002,-313.6 921.5002,-313.6"/>
<text text-anchor="middle" x="859.4235" y="-288.3" font-family="Helvetica,sans-Serif" font-size="11.00" fill="#000000">Core Metadata Collection</text>
</g>
<!-- aligned_reads_index&#45;&gt;core_metadata_collection -->
<g id="edge3" class="edge">
<title>aligned_reads_index-&gt;core_metadata_collection</title>
<path fill="none" stroke="#a0a0a0" stroke-dasharray="5,2" d="M799.3089,-44.2348C786.7311,-75.012 768.5657,-132.0867 782.9136,-178.8 792.8629,-211.1928 815.6222,-242.6421 833.7467,-264.0673"/>
<polygon fill="#a0a0a0" stroke="#a0a0a0" points="832.0572,-265.8599 838.4821,-269.5644 835.7697,-262.6618 832.0572,-265.8599"/>
<text text-anchor="middle" x="803.6784" y="-154.1" font-family="Helvetica,sans-Serif" font-size="9.00" fill="#000000">data_from</text>
</g>
<!-- submitted_aligned_reads -->
<g id="node23" class="node">
<title>submitted_aligned_reads</title>
<path fill="#76b7b2" stroke="#000000" d="M1181.5099,-174.8C1181.5099,-174.8 1065.337,-174.8 1065.337,-174.8 1059.337,-174.8 1053.337,-168.8 1053.337,-162.8 1053.337,-162.8 1053.337,-150.8 1053.337,-150.8 1053.337,-144.8 1059.337,-138.8 1065.337,-138.8 1065.337,-138.8 1181.5099,-138.8 1181.5099,-138.8 1187.5099,-138.8 1193.5099,-144.8 1193.5099,-150.8 1193.5099,-150.8 1193.5099,-162.8 1193.5099,-162.8 1193.5099,-168.8 1187.5099,-174.8 1181.5099,-174.8"/>
<path fill="none" stroke="#000000" d="M1185.5123,-178.8C1185.5123,-178.8 1061.3346,-178.8 1061.3346,-178.8 1055.3346,-178.8 1049.3346,-172.8 1049.3346,-166.8 1049.3346,-166.8 1049.3346,-146.8 1049.3346,-146.8 1049.3346,-140.8 1055.3346,-134.8 1061.3346,-134.8 1061.3346,-134.8 1185.5123,-134.8 1185.5123,-134.8 1191.5123,-134.8 1197.5123,-140.8 1197.5123,-146.8 1197.5123,-146.8 1197.5123,-166.8 1197.5123,-166.8 1197.5123,-172.8 1191.5123,-178.8 1185.5123,-178.8"/>
<text text-anchor="middle" x="1123.4235" y="-153.5" font-family="Helvetica,sans-Serif" font-size="11.00" fill="#000000">Submitted Aligned Reads</text>
</g>
<!-- aligned_reads_index&#45;&gt;submitted_aligned_reads -->
<g id="edge2" class="edge">
<title>aligned_reads_index-&gt;submitted_aligned_reads</title>
<path fill="none" stroke="#a0a0a0" stroke-dasharray="5,2" d="M850.8578,-44.0709C879.8934,-59.1698 919.8101,-79.1984 955.9184,-94.8 987.0135,-108.2355 1022.0711,-121.494 1052.0477,-132.2802"/>
<polygon fill="#a0a0a0" stroke="#a0a0a0" points="1051.3418,-134.6297 1058.758,-134.684 1052.9943,-130.0168 1051.3418,-134.6297"/>
<text text-anchor="middle" x="981.676" y="-86.7" font-family="Helvetica,sans-Serif" font-size="9.00" fill="#000000">derived_from</text>
</g>
<!-- aliquot -->
<g id="node3" class="node">
<title>aliquot</title>
<path fill="#f28e2b" stroke="#000000" d="M657.4235,-444.4C657.4235,-444.4 627.4235,-444.4 627.4235,-444.4 621.4235,-444.4 615.4235,-438.4 615.4235,-432.4 615.4235,-432.4 615.4235,-420.4 615.4235,-420.4 615.4235,-414.4 621.4235,-408.4 627.4235,-408.4 627.4235,-408.4 657.4235,-408.4 657.4235,-408.4 663.4235,-408.4 669.4235,-414.4 669.4235,-420.4 669.4235,-420.4 669.4235,-432.4 669.4235,-432.4 669.4235,-438.4 663.4235,-444.4 657.4235,-444.4"/>
<path fill="none" stroke="#000000" d="M661.4235,-448.4C661.4235,-448.4 623.4235,-448.4 623.4235,-448.4 617.4235,-448.4 611.4235,-442.4 611.4235,-436.4 611.4235,-436.4 611.4235,-416.4 611.4235,-416.4 611.4235,-410.4 617.4235,-404.4 623.4235,-404.4 623.4235,-404.4 661.4235,-404.4 661.4235,-404.4 667.4235,-404.4 673.4235,-410.4 673.4235,-416.4 673.4235,-416.4 673.4235,-436.4 673.4235,-436.4 673.4235,-442.4 667.4235,-448.4 661.4235,-448.4"/>
<text text-anchor="middle" x="642.4235" y="-423.1" font-family="Helvetica,sans-Serif" font-size="11.00" fill="#000000">Aliquot</text>
</g>
<!-- sample -->
<g id="node19" class="node">
<title>sample</title>
<path fill="#f28e2b" stroke="#000000" d="M657.4235,-579.2C657.4235,-579.2 627.4235,-579.2 627.4235,-579.2 621.4235,-579.2 615.4235,-573.2 615.4235,-567.2 615.4235,-567.2 615.4235,-555.2 615.4235,-555.2 615.4235,-549.2 621.4235,-543.2 627.4235,-543.2 627.4235,-543.2 657.4235,-543.2 657.4235,-543.2 663.4235,-543.2 669.4235,-549.2 669.4235,-555.2 669.4235,-555.2 669.4235,-567.2 669.4235,-567.2 669.4235,-573.2 663.4235,-579.2 657.4235,-579.2"/>
<path fill="none" stroke="#000000" d="M661.4235,-583.2C661.4235,-583.2 623.4235,-583.2 623.4235,-583.2 617.4235,-583.2 611.4235,-577.2 611.4235,-571.2 611.4235,-571.2 611.4235,-551.2 611.4235,-551.2 611.4235,-545.2 617.4235,-539.2 623.4235,-539.2 623.4235,-539.2 661.4235,-539.2 661.4235,-539.2 667.4235,-539.2 673.4235,-545.2 673.4235,-551.2 673.4235,-551.2 673.4235,-571.2 673.4235,-571.2 673.4235,-577.2 667.4235,-583.2 661.4235,-583.2"/>
<text text-anchor="middle" x="642.4235" y="-557.9" font-family="Helvetica,sans-Serif" font-size="11.00" fill="#000000">Sample</text>
</g>
<!-- aliquot&#45;&gt;sample -->
<g id="edge4" class="edge">
<title>aliquot-&gt;sample</title>
<path fill="none" stroke="#4a6cf7" d="M642.4235,-448.6595C642.4235,-471.3918 642.4235,-506.8031 642.4235,-531.8238"/>
<polygon fill="#4a6cf7" stroke="#4a6cf7" points="639.9735,-531.9074 642.4235,-538.9075 644.8735,-531.9075 639.9735,-531.9074"/>
<text text-anchor="middle" x="668.676" y="-491.1" font-family="Helvetica,sans-Serif" font-size="9.00" fill="#000000">derived_from</text>
</g>
<!-- case -->
<g id="node4" class="node">
<title>case</title>
<path fill="#4e79a7" stroke="#000000" d="M617.4235,-848.8C617.4235,-848.8 587.4235,-848.8 587.4235,-848.8 581.4235,-848.8 575.4235,-842.8 575.4235,-836.8 575.4235,-836.8 575.4235,-824.8 575.4235,-824.8 575.4235,-818.8 581.4235,-812.8 587.4235,-812.8 587.4235,-812.8 617.4235,-812.8 617.4235,-812.8 623.4235,-812.8 629.4235,-818.8 629.4235,-824.8 629.4235,-824.8 629.4235,-836.8 629.4235,-836.8 629.4235,-842.8 623.4235,-848.8 617.4235,-848.8"/>
<path fill="none" stroke="#000000" d="M621.4235,-852.8C621.4235,-852.8 583.4235,-852.8 583.4235,-852.8 577.4235,-852.8 571.4235,-846.8 571.4235,-840.8 571.4235,-840.8 571.4235,-820.8 571.4235,-820.8 571.4235,-814.8 577.4235,-808.8 583.4235,-808.8 583.4235,-808.8 621.4235,-808.8 621.4235,-808.8 627.4235,-808.8 633.4235,-814.8 633.4235,-820.8 633.4235,-820.8 633.4235,-840.8 633.4235,-840.8 633.4235,-846.8 627.4235,-852.8 621.4235,-852.8"/>
<text text-anchor="middle" x="602.4235" y="-827.5" font-family="Helvetica,sans-Serif" font-size="11.00" fill="#000000">Case</text>
</g>
<!-- experiment -->
<g id="node9" class="node">
<title>experiment</title>
<path fill="#4e79a7" stroke="#000000" d="M770.0606,-983.6C770.0606,-983.6 722.7863,-983.6 722.7863,-983.6 716.7863,-983.6 710.7863,-977.6 710.7863,-971.6 710.7863,-971.6 710.7863,-959.6 710.7863,-959.6 710.7863,-953.6 716.7863,-947.6 722.7863,-947.6 722.7863,-947.6 770.0606,-947.6 770.0606,-947.6 776.0606,-947.6 782.0606,-953.6 782.0606,-959.6 782.0606,-959.6 782.0606,-971.6 782.0606,-971.6 782.0606,-977.6 776.0606,-983.6 770.0606,-983.6"/>
<path fill="none" stroke="#000000" d="M774.0415,-987.6C774.0415,-987.6 718.8054,-987.6 718.8054,-987.6 712.8054,-987.6 706.8054,-981.6 706.8054,-975.6 706.8054,-975.6 706.8054,-955.6 706.8054,-955.6 706.8054,-949.6 712.8054,-943.6 718.8054,-943.6 718.8054,-943.6 774.0415,-943.6 774.0415,-943.6 780.0415,-943.6 786.0415,-949.6 786.0415,-955.6 786.0415,-955.6 786.0415,-975.6 786.0415,-975.6 786.0415,-981.6 780.0415,-987.6 774.0415,-987.6"/>
<text text-anchor="middle" x="746.4235" y="-962.3" font-family="Helvetica,sans-Serif" font-size="11.00" fill="#000000">Experiment</text>
</g>
<!-- case&#45;&gt;experiment -->
<g id="edge5" class="edge">
<title>case-&gt;experiment</title>
<path fill="none" stroke="#4a6cf7" d="M631.3884,-857.9144C656.4178,-881.3447 692.4073,-915.0349 717.4416,-938.4697"/>
<polygon fill="#4a6cf7" stroke="#4a6cf7" points="631.3124,-857.8433 628.3548,-850.7598 628.7573,-855.4514 626.2021,-853.0595 626.2021,-853.0595 626.2021,-853.0595 628.7573,-855.4514 624.0494,-855.3591 631.3124,-857.8433 631.3124,-857.8433"/>
<polygon fill="#4a6cf7" stroke="#4a6cf7" points="715.8248,-940.3122 722.6095,-943.3075 719.1735,-936.735 715.8248,-940.3122"/>
<text text-anchor="middle" x="702.1759" y="-895.5" font-family="Helvetica,sans-Serif" font-size="9.00" fill="#000000">member_of</text>
</g>
<!-- clinical_test -->
<g id="node5" class="node">
<title>clinical_test</title>
<path fill="#e15759" stroke="#000000" d="M347.312,-579.2C347.312,-579.2 295.5349,-579.2 295.5349,-579.2 289.5349,-579.2 283.5349,-573.2 283.5349,-567.2 283.5349,-567.2 283.5349,-555.2 283.5349,-555.2 283.5349,-549.2 289.5349,-543.2 295.5349,-543.2 295.5349,-543.2 347.312,-543.2 347.312,-543.2 353.312,-543.2 359.312,-549.2 359.312,-555.2 359.312,-555.2 359.312,-567.2 359.312,-567.2 359.312,-573.2 353.312,-579.2 347.312,-579.2"/>
<path fill="none" stroke="#000000" d="M351.3064,-583.2C351.3064,-583.2 291.5405,-583.2 291.5405,-583.2 285.5405,-583.2 279.5405,-577.2 279.5405,-571.2 279.5405,-571.2 279.5405,-551.2 279.5405,-551.2 279.5405,-545.2 285.5405,-539.2 291.5405,-539.2 291.5405,-539.2 351.3064,-539.2 351.3064,-539.2 357.3064,-539.2 363.3064,-545.2 363.3064,-551.2 363.3064,-551.2 363.3064,-571.2 363.3064,-571.2 363.3064,-577.2 357.3064,-583.2 351.3064,-583.2"/>
<text text-anchor="middle" x="321.4235" y="-557.9" font-family="Helvetica,sans-Serif" font-size="11.00" fill="#000000">Clinical Test</text>
</g>
<!-- clinical_test&#45;&gt;case -->
<g id="edge6" class="edge">
<title>clinical_test-&gt;case</title>
<path fill="none" stroke="#4a6cf7" d="M288.5979,-588.4332C253.5232,-620.868 206.9027,-675.9395 237.9152,-718 277.3557,-771.4911 478.9004,-810.4271 564.2061,-824.763"/>
<polygon fill="#4a6cf7" stroke="#4a6cf7" points="288.9304,-588.1315 296.2311,-585.7602 291.5224,-585.7795 294.1143,-583.4275 294.1143,-583.4275 294.1143,-583.4275 291.5224,-585.7795 291.9975,-581.0947 288.9304,-588.1315 288.9304,-588.1315"/>
<polygon fill="#4a6cf7" stroke="#4a6cf7" points="564.0547,-827.2214 571.3619,-825.9535 564.8589,-822.3878 564.0547,-827.2214"/>
<text text-anchor="middle" x="266.6776" y="-693.3" font-family="Helvetica,sans-Serif" font-size="9.00" fill="#000000">performed_for</text>
</g>
<!-- diagnosis -->
<g id="node8" class="node">
<title>diagnosis</title>
<path fill="#e15759" stroke="#000000" d="M622.6906,-714C622.6906,-714 582.1563,-714 582.1563,-714 576.1563,-714 570.1563,-708 570.1563,-702 570.1563,-702 570.1563,-690 570.1563,-690 570.1563,-684 576.1563,-678 582.1563,-678 582.1563,-678 622.6906,-678 622.6906,-678 628.6906,-678 634.6906,-684 634.6906,-690 634.6906,-690 634.6906,-702 634.6906,-702 634.6906,-708 628.6906,-714 622.6906,-714"/>
<path fill="none" stroke="#000000" d="M626.7063,-718C626.7063,-718 578.1406,-718 578.1406,-718 572.1406,-718 566.1406,-712 566.1406,-706 566.1406,-706 566.1406,-686 566.1406,-686 566.1406,-680 572.1406,-674 578.1406,-674 578.1406,-674 626.7063,-674 626.7063,-674 632.7063,-674 638.7063,-680 638.7063,-686 638.7063,-686 638.7063,-706 638.7063,-706 638.7063,-712 632.7063,-718 626.7063,-718"/>
<text text-anchor="middle" x="602.4235" y="-692.7" font-family="Helvetica,sans-Serif" font-size="11.00" fill="#000000">Diagnosis</text>
</g>
<!-- clinical_test&#45;&gt;diagnosis -->
<g id="edge7" class="edge">
<title>clinical_test-&gt;diagnosis</title>
<path fill="none" stroke="#a0a0a0" stroke-dasharray="5,2" d="M363.492,-581.3809C416.2022,-606.6668 506.0566,-649.7713 559.2704,-675.2988"/>
<polygon fill="#a0a0a0" stroke="#a0a0a0" points="558.5203,-677.6563 565.8914,-678.475 560.6397,-673.2383 558.5203,-677.6563"/>
<text text-anchor="middle" x="490.1789" y="-625.9" font-family="Helvetica,sans-Serif" font-size="9.00" fill="#000000">relates_to</text>
</g>
<!-- core_metadata_collection&#45;&gt;project -->
<g id="edge8" class="edge">
<title>core_metadata_collection-&gt;project</title>
<path fill="none" stroke="#4a6cf7" d="M911.924,-317.2446C950.2116,-340.0326 995.4235,-377.3304 995.4235,-426.4 995.4235,-426.4 995.4235,-426.4 995.4235,-965.6 995.4235,-1001.7518 995.4235,-1043.3573 995.4235,-1070.6711"/>
<polygon fill="#4a6cf7" stroke="#4a6cf7" points="911.8986,-317.2299 907.4295,-310.9889 908.8726,-315.4711 905.8466,-313.7123 905.8466,-313.7123 905.8466,-313.7123 908.8726,-315.4711 904.2636,-316.4357 911.8986,-317.2299 911.8986,-317.2299"/>
<polygon fill="#4a6cf7" stroke="#4a6cf7" points="992.9735,-1070.9796 995.4235,-1077.9797 997.8735,-1070.9797 992.9735,-1070.9796"/>
<text text-anchor="middle" x="1015.6784" y="-693.3" font-family="Helvetica,sans-Serif" font-size="9.00" fill="#000000">data_from</text>
</g>
<!-- demographic -->
<g id="node7" class="node">
<title>demographic</title>
<path fill="#e15759" stroke="#000000" d="M893.3016,-714C893.3016,-714 835.5453,-714 835.5453,-714 829.5453,-714 823.5453,-708 823.5453,-702 823.5453,-702 823.5453,-690 823.5453,-690 823.5453,-684 829.5453,-678 835.5453,-678 835.5453,-678 893.3016,-678 893.3016,-678 899.3016,-678 905.3016,-684 905.3016,-690 905.3016,-690 905.3016,-702 905.3016,-702 905.3016,-708 899.3016,-714 893.3016,-714"/>
<path fill="none" stroke="#000000" d="M897.3193,-718C897.3193,-718 831.5276,-718 831.5276,-718 825.5276,-718 819.5276,-712 819.5276,-706 819.5276,-706 819.5276,-686 819.5276,-686 819.5276,-680 825.5276,-674 831.5276,-674 831.5276,-674 897.3193,-674 897.3193,-674 903.3193,-674 909.3193,-680 909.3193,-686 909.3193,-686 909.3193,-706 909.3193,-706 909.3193,-712 903.3193,-718 897.3193,-718"/>
<text text-anchor="middle" x="864.4235" y="-692.7" font-family="Helvetica,sans-Serif" font-size="11.00" fill="#000000">Demographic</text>
</g>
<!-- demographic&#45;&gt;case -->
<g id="edge9" class="edge">
<title>demographic-&gt;case</title>
<path fill="none" stroke="#4a6cf7" d="M835.219,-718.1549C814.0644,-733.5782 784.3861,-753.9594 756.4235,-768.8 718.436,-788.9611 672.4124,-806.6833 640.6265,-817.9603"/>
<polygon fill="#4a6cf7" stroke="#4a6cf7" points="639.4597,-815.7735 633.6686,-820.4066 641.085,-820.3961 639.4597,-815.7735"/>
<text text-anchor="middle" x="794.6763" y="-760.7" font-family="Helvetica,sans-Serif" font-size="9.00" fill="#000000">describes</text>
</g>
<!-- diagnosis&#45;&gt;case -->
<g id="edge10" class="edge">
<title>diagnosis-&gt;case</title>
<path fill="none" stroke="#4a6cf7" d="M602.4235,-725.3398C602.4235,-747.908 602.4235,-778.9456 602.4235,-801.5031"/>
<polygon fill="#4a6cf7" stroke="#4a6cf7" points="602.4235,-725.2595 605.5735,-718.2594 602.4235,-721.7595 602.4235,-718.2595 602.4235,-718.2595 602.4235,-718.2595 602.4235,-721.7595 599.2735,-718.2595 602.4235,-725.2595 602.4235,-725.2595"/>
<polygon fill="#4a6cf7" stroke="#4a6cf7" points="599.9735,-801.5074 602.4235,-808.5075 604.8735,-801.5075 599.9735,-801.5074"/>
<text text-anchor="middle" x="621.6763" y="-760.7" font-family="Helvetica,sans-Serif" font-size="9.00" fill="#000000">describes</text>
</g>
<!-- experiment&#45;&gt;project -->
<g id="edge11" class="edge">
<title>experiment-&gt;project</title>
<path fill="none" stroke="#4a6cf7" d="M792.4021,-990.4912C840.0166,-1016.2681 913.5213,-1056.061 957.798,-1080.0309"/>
<polygon fill="#4a6cf7" stroke="#4a6cf7" points="792.3094,-990.4411 787.6532,-984.3384 789.2315,-988.7748 786.1536,-987.1085 786.1536,-987.1085 786.1536,-987.1085 789.2315,-988.7748 784.6539,-989.8786 792.3094,-990.4411 792.3094,-990.4411"/>
<polygon fill="#4a6cf7" stroke="#4a6cf7" points="956.7898,-1082.271 964.112,-1083.4491 959.1226,-1077.9619 956.7898,-1082.271"/>
<text text-anchor="middle" x="905.6776" y="-1030.3" font-family="Helvetica,sans-Serif" font-size="9.00" fill="#000000">performed_for</text>
</g>
<!-- experimental_metadata -->
<g id="node10" class="node">
<title>experimental_metadata</title>
<path fill="#edc948" stroke="#000000" d="M270.0011,-174.8C270.0011,-174.8 164.8458,-174.8 164.8458,-174.8 158.8458,-174.8 152.8458,-168.8 152.8458,-162.8 152.8458,-162.8 152.8458,-150.8 152.8458,-150.8 152.8458,-144.8 158.8458,-138.8 164.8458,-138.8 164.8458,-138.8 270.0011,-138.8 270.0011,-138.8 276.0011,-138.8 282.0011,-144.8 282.0011,-150.8 282.0011,-150.8 282.0011,-162.8 282.0011,-162.8 282.0011,-168.8 276.0011,-174.8 270.0011,-174.8"/>
<path fill="none" stroke="#000000" d="M274.0035,-178.8C274.0035,-178.8 160.8434,-178.8 160.8434,-178.8 154.8434,-178.8 148.8434,-172.8 148.8434,-166.8 148.8434,-166.8 148.8434,-146.8 148.8434,-146.8 148.8434,-140.8 154.8434,-134.8 160.8434,-134.8 160.8434,-134.8 274.0035,-134.8 274.0035,-134.8 280.0035,-134.8 286.0035,-140.8 286.0035,-146.8 286.0035,-146.8 286.0035,-166.8 286.0035,-166.8 286.0035,-172.8 280.0035,-178.8 274.0035,-178.8"/>
<text text-anchor="middle" x="217.4235" y="-153.5" font-family="Helvetica,sans-Serif" font-size="11.00" fill="#000000">Experimental Metadata</text>
</g>
<!-- experimental_metadata&#45;&gt;core_metadata_collection -->
<g id="edge12" class="edge">
<title>experimental_metadata-&gt;core_metadata_collection</title>
<path fill="none" stroke="#a0a0a0" stroke-dasharray="5,2" d="M265.757,-178.8066C303.6757,-195.1982 358.1832,-216.8618 407.9136,-229.6 442.9058,-238.5631 657.7218,-266.2869 778.009,-281.4455"/>
<polygon fill="#a0a0a0" stroke="#a0a0a0" points="777.8315,-283.8925 785.0828,-282.3362 778.4437,-279.0308 777.8315,-283.8925"/>
<text text-anchor="middle" x="428.6784" y="-221.5" font-family="Helvetica,sans-Serif" font-size="9.00" fill="#000000">data_from</text>
</g>
<!-- experimental_metadata&#45;&gt;experiment -->
<g id="edge13" class="edge">
<title>experimental_metadata-&gt;experiment</title>
<path fill="none" stroke="#a0a0a0" stroke-dasharray="5,2" d="M183.2342,-178.9149C151.2681,-202.5743 108.4235,-243.2953 108.4235,-291.6 108.4235,-291.6 108.4235,-291.6 108.4235,-830.8 108.4235,-961.2314 558.62,-909.1642 684.4235,-943.6 689.4221,-944.9683 694.5965,-946.5426 699.7274,-948.2071"/>
<polygon fill="#a0a0a0" stroke="#a0a0a0" points="699.261,-950.634 706.6765,-950.5217 700.8095,-945.9851 699.261,-950.634"/>
<text text-anchor="middle" x="134.676" y="-558.5" font-family="Helvetica,sans-Serif" font-size="9.00" fill="#000000">derived_from</text>
</g>
<!-- exposure -->
<g id="node11" class="node">
<title>exposure</title>
<path fill="#e15759" stroke="#000000" d="M370.8562,-714C370.8562,-714 331.9907,-714 331.9907,-714 325.9907,-714 319.9907,-708 319.9907,-702 319.9907,-702 319.9907,-690 319.9907,-690 319.9907,-684 325.9907,-678 331.9907,-678 331.9907,-678 370.8562,-678 370.8562,-678 376.8562,-678 382.8562,-684 382.8562,-690 382.8562,-690 382.8562,-702 382.8562,-702 382.8562,-708 376.8562,-714 370.8562,-714"/>
<path fill="none" stroke="#000000" d="M374.8823,-718C374.8823,-718 327.9646,-718 327.9646,-718 321.9646,-718 315.9646,-712 315.9646,-706 315.9646,-706 315.9646,-686 315.9646,-686 315.9646,-680 321.9646,-674 327.9646,-674 327.9646,-674 374.8823,-674 374.8823,-674 380.8823,-674 386.8823,-680 386.8823,-686 386.8823,-686 386.8823,-706 386.8823,-706 386.8823,-712 380.8823,-718 374.8823,-718"/>
<text text-anchor="middle" x="351.4235" y="-692.7" font-family="Helvetica,sans-Serif" font-size="11.00" fill="#000000">Exposure</text>
</g>
<!-- exposure&#45;&gt;case -->
<g id="edge14" class="edge">
<title>exposure-&gt;case</title>
<path fill="none" stroke="#4a6cf7" d="M393.0971,-718.3809C440.9568,-744.084 518.7822,-785.8803 564.847,-810.6195"/>
<polygon fill="#4a6cf7" stroke="#4a6cf7" points="393.0202,-718.3397 388.3437,-712.2525 389.9367,-716.6836 386.8533,-715.0276 386.8533,-715.0276 386.8533,-715.0276 389.9367,-716.6836 385.3629,-717.8028 393.0202,-718.3397 393.0202,-718.3397"/>
<polygon fill="#4a6cf7" stroke="#4a6cf7" points="563.8036,-812.8401 571.1298,-813.9937 566.122,-808.5232 563.8036,-812.8401"/>
<text text-anchor="middle" x="504.6763" y="-760.7" font-family="Helvetica,sans-Serif" font-size="9.00" fill="#000000">describes</text>
</g>
<!-- family_history -->
<g id="node12" class="node">
<title>family_history</title>
<path fill="#e15759" stroke="#000000" d="M507.0899,-714C507.0899,-714 445.757,-714 445.757,-714 439.757,-714 433.757,-708 433.757,-702 433.757,-702 433.757,-690 433.757,-690 433.757,-684 439.757,-678 445.757,-678 445.757,-678 507.0899,-678 507.0899,-678 513.0899,-678 519.0899,-684 519.0899,-690 519.0899,-690 519.0899,-702 519.0899,-702 519.0899,-708 513.0899,-714 507.0899,-714"/>
<path fill="none" stroke="#000000" d="M511.075,-718C511.075,-718 441.7719,-718 441.7719,-718 435.7719,-718 429.7719,-712 429.7719,-706 429.7719,-706 429.7719,-686 429.7719,-686 429.7719,-680 435.7719,-674 441.7719,-674 441.7719,-674 511.075,-674 511.075,-674 517.075,-674 523.075,-680 523.075,-686 523.075,-686 523.075,-706 523.075,-706 523.075,-712 517.075,-718 511.075,-718"/>
<text text-anchor="middle" x="476.4235" y="-692.7" font-family="Helvetica,sans-Serif" font-size="11.00" fill="#000000">Family History</text>
</g>
<!-- family_history&#45;&gt;case -->
<g id="edge15" class="edge">
<title>family_history-&gt;case</title>
<path fill="none" stroke="#4a6cf7" d="M502.0616,-723.4287C523.7727,-746.6561 554.7522,-779.7993 576.5343,-803.1027"/>
<polygon fill="#4a6cf7" stroke="#4a6cf7" points="502.0098,-723.3734 499.531,-716.1085 499.6198,-720.8164 497.2298,-718.2595 497.2298,-718.2595 497.2298,-718.2595 499.6198,-720.8164 494.9285,-720.4105 502.0098,-723.3734 502.0098,-723.3734"/>
<polygon fill="#4a6cf7" stroke="#4a6cf7" points="575.0163,-805.0666 581.5862,-808.5075 578.596,-801.7206 575.0163,-805.0666"/>
<text text-anchor="middle" x="562.6763" y="-760.7" font-family="Helvetica,sans-Serif" font-size="9.00" fill="#000000">describes</text>
</g>
<!-- keyword -->
<g id="node13" class="node">
<title>keyword</title>
<path fill="#4e79a7" stroke="#000000" d="M1110.7201,-983.6C1110.7201,-983.6 1076.1268,-983.6 1076.1268,-983.6 1070.1268,-983.6 1064.1268,-977.6 1064.1268,-971.6 1064.1268,-971.6 1064.1268,-959.6 1064.1268,-959.6 1064.1268,-953.6 1070.1268,-947.6 1076.1268,-947.6 1076.1268,-947.6 1110.7201,-947.6 1110.7201,-947.6 1116.7201,-947.6 1122.7201,-953.6 1122.7201,-959.6 1122.7201,-959.6 1122.7201,-971.6 1122.7201,-971.6 1122.7201,-977.6 1116.7201,-983.6 1110.7201,-983.6"/>
<path fill="none" stroke="#000000" d="M1114.7072,-987.6C1114.7072,-987.6 1072.1397,-987.6 1072.1397,-987.6 1066.1397,-987.6 1060.1397,-981.6 1060.1397,-975.6 1060.1397,-975.6 1060.1397,-955.6 1060.1397,-955.6 1060.1397,-949.6 1066.1397,-943.6 1072.1397,-943.6 1072.1397,-943.6 1114.7072,-943.6 1114.7072,-943.6 1120.7072,-943.6 1126.7072,-949.6 1126.7072,-955.6 1126.7072,-955.6 1126.7072,-975.6 1126.7072,-975.6 1126.7072,-981.6 1120.7072,-987.6 1114.7072,-987.6"/>
<text text-anchor="middle" x="1093.4235" y="-962.3" font-family="Helvetica,sans-Serif" font-size="11.00" fill="#000000">Keyword</text>
</g>
<!-- keyword&#45;&gt;project -->
<g id="edge16" class="edge">
<title>keyword-&gt;project</title>
<path fill="none" stroke="#4a6cf7" d="M1077.2407,-987.8595C1060.4306,-1010.982 1034.0835,-1047.2226 1015.85,-1072.3031"/>
<polygon fill="#4a6cf7" stroke="#4a6cf7" points="1013.7648,-1071.0049 1011.6302,-1078.1075 1017.7281,-1073.8862 1013.7648,-1071.0049"/>
<text text-anchor="middle" x="1063.4263" y="-1030.3" font-family="Helvetica,sans-Serif" font-size="9.00" fill="#000000">describe</text>
</g>
<!-- program -->
<g id="node14" class="node">
<title>program</title>
<path fill="#4e79a7" stroke="#000000" d="M1012.59,-1249.2C1012.59,-1249.2 978.2569,-1249.2 978.2569,-1249.2 972.2569,-1249.2 966.2569,-1243.2 966.2569,-1237.2 966.2569,-1237.2 966.2569,-1225.2 966.2569,-1225.2 966.2569,-1219.2 972.2569,-1213.2 978.2569,-1213.2 978.2569,-1213.2 1012.59,-1213.2 1012.59,-1213.2 1018.59,-1213.2 1024.59,-1219.2 1024.59,-1225.2 1024.59,-1225.2 1024.59,-1237.2 1024.59,-1237.2 1024.59,-1243.2 1018.59,-1249.2 1012.59,-1249.2"/>
<text text-anchor="middle" x="995.4235" y="-1227.9" font-family="Helvetica,sans-Serif" font-size="11.00" fill="#000000">Program</text>
</g>
<!-- project&#45;&gt;program -->
<g id="edge17" class="edge">
<title>project-&gt;program</title>
<path fill="none" stroke="#4a6cf7" d="M995.4235,-1129.8243C995.4235,-1152.6955 995.4235,-1184.0883 995.4235,-1205.8545"/>
<polygon fill="#4a6cf7" stroke="#4a6cf7" points="995.4235,-1129.5884 998.5735,-1122.5884 995.4235,-1126.0884 995.4235,-1122.5884 995.4235,-1122.5884 995.4235,-1122.5884 995.4235,-1126.0884 992.2735,-1122.5885 995.4235,-1129.5884 995.4235,-1129.5884"/>
<polygon fill="#4a6cf7" stroke="#4a6cf7" points="992.9735,-1206.1223 995.4235,-1213.1223 997.8735,-1206.1223 992.9735,-1206.1223"/>
<text text-anchor="middle" x="1018.1759" y="-1165.1" font-family="Helvetica,sans-Serif" font-size="9.00" fill="#000000">member_of</text>
</g>
<!-- publication -->
<g id="node16" class="node">
<title>publication</title>
<path fill="#4e79a7" stroke="#000000" d="M1231.2245,-983.6C1231.2245,-983.6 1185.6224,-983.6 1185.6224,-983.6 1179.6224,-983.6 1173.6224,-977.6 1173.6224,-971.6 1173.6224,-971.6 1173.6224,-959.6 1173.6224,-959.6 1173.6224,-953.6 1179.6224,-947.6 1185.6224,-947.6 1185.6224,-947.6 1231.2245,-947.6 1231.2245,-947.6 1237.2245,-947.6 1243.2245,-953.6 1243.2245,-959.6 1243.2245,-959.6 1243.2245,-971.6 1243.2245,-971.6 1243.2245,-977.6 1237.2245,-983.6 1231.2245,-983.6"/>
<path fill="none" stroke="#000000" d="M1235.2137,-987.6C1235.2137,-987.6 1181.6332,-987.6 1181.6332,-987.6 1175.6332,-987.6 1169.6332,-981.6 1169.6332,-975.6 1169.6332,-975.6 1169.6332,-955.6 1169.6332,-955.6 1169.6332,-949.6 1175.6332,-943.6 1181.6332,-943.6 1181.6332,-943.6 1235.2137,-943.6 1235.2137,-943.6 1241.2137,-943.6 1247.2137,-949.6 1247.2137,-955.6 1247.2137,-955.6 1247.2137,-975.6 1247.2137,-975.6 1247.2137,-981.6 1241.2137,-987.6 1235.2137,-987.6"/>
<text text-anchor="middle" x="1208.4235" y="-962.3" font-family="Helvetica,sans-Serif" font-size="11.00" fill="#000000">Publication</text>
</g>
<!-- publication&#45;&gt;project -->
<g id="edge18" class="edge">
<title>publication-&gt;project</title>
<path fill="none" stroke="#4a6cf7" d="M1173.2508,-987.8595C1134.4435,-1012.4192 1072.2515,-1051.7783 1032.6439,-1076.8445"/>
<polygon fill="#4a6cf7" stroke="#4a6cf7" points="1031.0929,-1074.9266 1026.4881,-1080.7403 1033.7133,-1079.0671 1031.0929,-1074.9266"/>
<text text-anchor="middle" x="1125.1769" y="-1030.3" font-family="Helvetica,sans-Serif" font-size="9.00" fill="#000000">refers_to</text>
</g>
<!-- read_group -->
<g id="node17" class="node">
<title>read_group</title>
<path fill="#f28e2b" stroke="#000000" d="M1152.334,-309.6C1152.334,-309.6 1100.5129,-309.6 1100.5129,-309.6 1094.5129,-309.6 1088.5129,-303.6 1088.5129,-297.6 1088.5129,-297.6 1088.5129,-285.6 1088.5129,-285.6 1088.5129,-279.6 1094.5129,-273.6 1100.5129,-273.6 1100.5129,-273.6 1152.334,-273.6 1152.334,-273.6 1158.334,-273.6 1164.334,-279.6 1164.334,-285.6 1164.334,-285.6 1164.334,-297.6 1164.334,-297.6 1164.334,-303.6 1158.334,-309.6 1152.334,-309.6"/>
<path fill="none" stroke="#000000" d="M1156.3295,-313.6C1156.3295,-313.6 1096.5174,-313.6 1096.5174,-313.6 1090.5174,-313.6 1084.5174,-307.6 1084.5174,-301.6 1084.5174,-301.6 1084.5174,-281.6 1084.5174,-281.6 1084.5174,-275.6 1090.5174,-269.6 1096.5174,-269.6 1096.5174,-269.6 1156.3295,-269.6 1156.3295,-269.6 1162.3295,-269.6 1168.3295,-275.6 1168.3295,-281.6 1168.3295,-281.6 1168.3295,-301.6 1168.3295,-301.6 1168.3295,-307.6 1162.3295,-313.6 1156.3295,-313.6"/>
<text text-anchor="middle" x="1126.4235" y="-288.3" font-family="Helvetica,sans-Serif" font-size="11.00" fill="#000000">Read Group</text>
</g>
<!-- read_group&#45;&gt;aliquot -->
<g id="edge19" class="edge">
<title>read_group-&gt;aliquot</title>
<path fill="none" stroke="#4a6cf7" d="M1077.3875,-305.2571C980.7411,-332.1743 767.4984,-391.5651 680.5037,-415.7942"/>
<polygon fill="#4a6cf7" stroke="#4a6cf7" points="1077.575,-305.205 1085.1635,-306.3613 1080.9466,-304.2659 1084.3183,-303.3268 1084.3183,-303.3268 1084.3183,-303.3268 1080.9466,-304.2659 1083.4731,-300.2923 1077.575,-305.205 1077.575,-305.205"/>
<polygon fill="#4a6cf7" stroke="#4a6cf7" points="679.8045,-413.4456 673.7185,-417.6839 681.1192,-418.1659 679.8045,-413.4456"/>
<text text-anchor="middle" x="924.676" y="-356.3" font-family="Helvetica,sans-Serif" font-size="9.00" fill="#000000">derived_from</text>
</g>
<!-- read_group_qc -->
<g id="node18" class="node">
<title>read_group_qc</title>
<path fill="#b07aa1" stroke="#000000" d="M1159.3853,-40C1159.3853,-40 1087.4616,-40 1087.4616,-40 1081.4616,-40 1075.4616,-34 1075.4616,-28 1075.4616,-28 1075.4616,-16 1075.4616,-16 1075.4616,-10 1081.4616,-4 1087.4616,-4 1087.4616,-4 1159.3853,-4 1159.3853,-4 1165.3853,-4 1171.3853,-10 1171.3853,-16 1171.3853,-16 1171.3853,-28 1171.3853,-28 1171.3853,-34 1165.3853,-40 1159.3853,-40"/>
<text text-anchor="middle" x="1123.4235" y="-18.7" font-family="Helvetica,sans-Serif" font-size="11.00" fill="#000000">Read Group QC</text>
</g>
<!-- read_group_qc&#45;&gt;read_group -->
<g id="edge22" class="edge">
<title>read_group_qc-&gt;read_group</title>
<path fill="none" stroke="#4a6cf7" d="M1178.3597,-26.3162C1294.2986,-36.6839 1557.7483,-67.3027 1611.4235,-134.8 1623.595,-150.106 1623.2362,-163.2154 1611.4235,-178.8 1558.7922,-248.2366 1288.3457,-278.2603 1175.7304,-287.8879"/>
<polygon fill="#4a6cf7" stroke="#4a6cf7" points="1178.2476,-26.3064 1171.5514,-22.5536 1174.7612,-25.9989 1171.2747,-25.6914 1171.2747,-25.6914 1171.2747,-25.6914 1174.7612,-25.9989 1170.998,-28.8293 1178.2476,-26.3064 1178.2476,-26.3064"/>
<polygon fill="#4a6cf7" stroke="#4a6cf7" points="1175.3146,-285.4642 1168.5448,-288.4928 1175.7257,-290.3469 1175.3146,-285.4642"/>
<text text-anchor="middle" x="1651.1827" y="-154.1" font-family="Helvetica,sans-Serif" font-size="9.00" fill="#000000">generated_from</text>
</g>
<!-- read_group_qc&#45;&gt;submitted_aligned_reads -->
<g id="edge20" class="edge">
<title>read_group_qc-&gt;submitted_aligned_reads</title>
<path fill="none" stroke="#a0a0a0" stroke-dasharray="5,2" d="M1123.4235,-40.1797C1123.4235,-62.5139 1123.4235,-100.7025 1123.4235,-127.2695"/>
<polygon fill="#a0a0a0" stroke="#a0a0a0" points="1120.9735,-127.4318 1123.4235,-134.4318 1125.8735,-127.4318 1120.9735,-127.4318"/>
<text text-anchor="middle" x="1143.6784" y="-86.7" font-family="Helvetica,sans-Serif" font-size="9.00" fill="#000000">data_from</text>
</g>
<!-- submitted_unaligned_reads -->
<g id="node27" class="node">
<title>submitted_unaligned_reads</title>
<path fill="#76b7b2" stroke="#000000" d="M989.849,-174.8C989.849,-174.8 860.9979,-174.8 860.9979,-174.8 854.9979,-174.8 848.9979,-168.8 848.9979,-162.8 848.9979,-162.8 848.9979,-150.8 848.9979,-150.8 848.9979,-144.8 854.9979,-138.8 860.9979,-138.8 860.9979,-138.8 989.849,-138.8 989.849,-138.8 995.849,-138.8 1001.849,-144.8 1001.849,-150.8 1001.849,-150.8 1001.849,-162.8 1001.849,-162.8 1001.849,-168.8 995.849,-174.8 989.849,-174.8"/>
<path fill="none" stroke="#000000" d="M993.8471,-178.8C993.8471,-178.8 856.9998,-178.8 856.9998,-178.8 850.9998,-178.8 844.9998,-172.8 844.9998,-166.8 844.9998,-166.8 844.9998,-146.8 844.9998,-146.8 844.9998,-140.8 850.9998,-134.8 856.9998,-134.8 856.9998,-134.8 993.8471,-134.8 993.8471,-134.8 999.8471,-134.8 1005.8471,-140.8 1005.8471,-146.8 1005.8471,-146.8 1005.8471,-166.8 1005.8471,-166.8 1005.8471,-172.8 999.8471,-178.8 993.8471,-178.8"/>
<text text-anchor="middle" x="925.4235" y="-153.5" font-family="Helvetica,sans-Serif" font-size="11.00" fill="#000000">Submitted Unaligned Reads</text>
</g>
<!-- read_group_qc&#45;&gt;submitted_unaligned_reads -->
<g id="edge21" class="edge">
<title>read_group_qc-&gt;submitted_unaligned_reads</title>
<path fill="none" stroke="#a0a0a0" stroke-dasharray="5,2" d="M1096.7203,-40.1797C1062.553,-63.4411 1003.1243,-103.9007 964.03,-130.5163"/>
<polygon fill="#a0a0a0" stroke="#a0a0a0" points="962.3447,-128.6997 957.9372,-134.6644 965.1023,-132.7502 962.3447,-128.6997"/>
<text text-anchor="middle" x="1049.6784" y="-86.7" font-family="Helvetica,sans-Serif" font-size="9.00" fill="#000000">data_from</text>
</g>
<!-- sample&#45;&gt;case -->
<g id="edge23" class="edge">
<title>sample-&gt;case</title>
<path fill="none" stroke="#4a6cf7" d="M660.6516,-589.5467C666.2163,-599.7435 671.6065,-611.6001 674.4235,-623.2 675.5562,-627.8644 674.8194,-629.2164 674.4235,-634 669.4105,-694.5698 676.3212,-713.3569 651.4235,-768.8 645.8751,-781.1553 637.3194,-793.2012 628.9008,-803.3392"/>
<polygon fill="#4a6cf7" stroke="#4a6cf7" points="660.6363,-589.5197 659.9262,-581.8765 658.911,-586.4745 657.1856,-583.4293 657.1856,-583.4293 657.1856,-583.4293 658.911,-586.4745 654.4449,-584.9822 660.6363,-589.5197 660.6363,-589.5197"/>
<polygon fill="#4a6cf7" stroke="#4a6cf7" points="626.9476,-801.8534 624.2579,-808.7649 630.6706,-805.0393 626.9476,-801.8534"/>
<text text-anchor="middle" x="698.676" y="-693.3" font-family="Helvetica,sans-Serif" font-size="9.00" fill="#000000">derived_from</text>
</g>
<!-- sample&#45;&gt;diagnosis -->
<g id="edge24" class="edge">
<title>sample-&gt;diagnosis</title>
<path fill="none" stroke="#a0a0a0" stroke-dasharray="5,2" d="M633.8127,-590.2184C627.0822,-612.8999 617.7707,-644.2798 611.039,-666.9654"/>
<polygon fill="#a0a0a0" stroke="#a0a0a0" points="633.8269,-590.1703 638.8381,-584.3556 634.8226,-586.8149 635.8183,-583.4595 635.8183,-583.4595 635.8183,-583.4595 634.8226,-586.8149 632.7984,-582.5633 633.8269,-590.1703 633.8269,-590.1703"/>
<polygon fill="#a0a0a0" stroke="#a0a0a0" points="608.6811,-666.2997 609.0384,-673.7075 613.3786,-667.6937 608.6811,-666.2997"/>
<text text-anchor="middle" x="644.4305" y="-625.9" font-family="Helvetica,sans-Serif" font-size="9.00" fill="#000000">related_to</text>
</g>
<!-- slide -->
<g id="node20" class="node">
<title>slide</title>
<path fill="#f28e2b" stroke="#000000" d="M474.4235,-309.6C474.4235,-309.6 444.4235,-309.6 444.4235,-309.6 438.4235,-309.6 432.4235,-303.6 432.4235,-297.6 432.4235,-297.6 432.4235,-285.6 432.4235,-285.6 432.4235,-279.6 438.4235,-273.6 444.4235,-273.6 444.4235,-273.6 474.4235,-273.6 474.4235,-273.6 480.4235,-273.6 486.4235,-279.6 486.4235,-285.6 486.4235,-285.6 486.4235,-297.6 486.4235,-297.6 486.4235,-303.6 480.4235,-309.6 474.4235,-309.6"/>
<path fill="none" stroke="#000000" d="M478.4235,-313.6C478.4235,-313.6 440.4235,-313.6 440.4235,-313.6 434.4235,-313.6 428.4235,-307.6 428.4235,-301.6 428.4235,-301.6 428.4235,-281.6 428.4235,-281.6 428.4235,-275.6 434.4235,-269.6 440.4235,-269.6 440.4235,-269.6 478.4235,-269.6 478.4235,-269.6 484.4235,-269.6 490.4235,-275.6 490.4235,-281.6 490.4235,-281.6 490.4235,-301.6 490.4235,-301.6 490.4235,-307.6 484.4235,-313.6 478.4235,-313.6"/>
<text text-anchor="middle" x="459.4235" y="-288.3" font-family="Helvetica,sans-Serif" font-size="11.00" fill="#000000">Slide</text>
</g>
<!-- slide&#45;&gt;sample -->
<g id="edge25" class="edge">
<title>slide-&gt;sample</title>
<path fill="none" stroke="#4a6cf7" d="M467.9478,-313.7573C480.5627,-345.1838 506.0676,-403.8341 536.9184,-448.4 559.1016,-480.4451 590.1054,-512.4639 612.7628,-534.1562"/>
<polygon fill="#4a6cf7" stroke="#4a6cf7" points="611.279,-536.1258 618.0423,-539.169 614.6529,-532.5724 611.279,-536.1258"/>
<text text-anchor="middle" x="563.676" y="-423.7" font-family="Helvetica,sans-Serif" font-size="9.00" fill="#000000">derived_from</text>
</g>
<!-- slide_count -->
<g id="node21" class="node">
<title>slide_count</title>
<path fill="#b07aa1" stroke="#000000" d="M64.7781,-174.8C64.7781,-174.8 16.0688,-174.8 16.0688,-174.8 10.0688,-174.8 4.0688,-168.8 4.0688,-162.8 4.0688,-162.8 4.0688,-150.8 4.0688,-150.8 4.0688,-144.8 10.0688,-138.8 16.0688,-138.8 16.0688,-138.8 64.7781,-138.8 64.7781,-138.8 70.7781,-138.8 76.7781,-144.8 76.7781,-150.8 76.7781,-150.8 76.7781,-162.8 76.7781,-162.8 76.7781,-168.8 70.7781,-174.8 64.7781,-174.8"/>
<path fill="none" stroke="#000000" d="M68.7705,-178.8C68.7705,-178.8 12.0764,-178.8 12.0764,-178.8 6.0764,-178.8 .0764,-172.8 .0764,-166.8 .0764,-166.8 .0764,-146.8 .0764,-146.8 .0764,-140.8 6.0764,-134.8 12.0764,-134.8 12.0764,-134.8 68.7705,-134.8 68.7705,-134.8 74.7705,-134.8 80.7705,-140.8 80.7705,-146.8 80.7705,-146.8 80.7705,-166.8 80.7705,-166.8 80.7705,-172.8 74.7705,-178.8 68.7705,-178.8"/>
<text text-anchor="middle" x="40.4235" y="-153.5" font-family="Helvetica,sans-Serif" font-size="11.00" fill="#000000">Slide Count</text>
</g>
<!-- slide_count&#45;&gt;slide -->
<g id="edge26" class="edge">
<title>slide_count-&gt;slide</title>
<path fill="none" stroke="#4a6cf7" d="M80.7801,-177.7042C112.7213,-193.6076 158.8082,-215.1486 200.9135,-229.6 277.419,-255.8581 370.3303,-275.2215 421.3286,-284.8239"/>
<polygon fill="#4a6cf7" stroke="#4a6cf7" points="420.9097,-287.238 428.2404,-286.1138 421.8087,-282.4211 420.9097,-287.238"/>
<text text-anchor="middle" x="221.6784" y="-221.5" font-family="Helvetica,sans-Serif" font-size="9.00" fill="#000000">data_from</text>
</g>
<!-- slide_image -->
<g id="node22" class="node">
<title>slide_image</title>
<path fill="#76b7b2" stroke="#000000" d="M484.4881,-174.8C484.4881,-174.8 434.3588,-174.8 434.3588,-174.8 428.3588,-174.8 422.3588,-168.8 422.3588,-162.8 422.3588,-162.8 422.3588,-150.8 422.3588,-150.8 422.3588,-144.8 428.3588,-138.8 434.3588,-138.8 434.3588,-138.8 484.4881,-138.8 484.4881,-138.8 490.4881,-138.8 496.4881,-144.8 496.4881,-150.8 496.4881,-150.8 496.4881,-162.8 496.4881,-162.8 496.4881,-168.8 490.4881,-174.8 484.4881,-174.8"/>
<path fill="none" stroke="#000000" d="M488.4914,-178.8C488.4914,-178.8 430.3555,-178.8 430.3555,-178.8 424.3555,-178.8 418.3555,-172.8 418.3555,-166.8 418.3555,-166.8 418.3555,-146.8 418.3555,-146.8 418.3555,-140.8 424.3555,-134.8 430.3555,-134.8 430.3555,-134.8 488.4914,-134.8 488.4914,-134.8 494.4914,-134.8 500.4914,-140.8 500.4914,-146.8 500.4914,-146.8 500.4914,-166.8 500.4914,-166.8 500.4914,-172.8 494.4914,-178.8 488.4914,-178.8"/>
<text text-anchor="middle" x="459.4235" y="-153.5" font-family="Helvetica,sans-Serif" font-size="11.00" fill="#000000">Slide Image</text>
</g>
<!-- slide_image&#45;&gt;core_metadata_collection -->
<g id="edge28" class="edge">
<title>slide_image-&gt;core_metadata_collection</title>
<path fill="none" stroke="#a0a0a0" stroke-dasharray="5,2" d="M500.6006,-177.2209C533.4338,-192.9637 580.8842,-214.522 623.9136,-229.6 674.3912,-247.288 732.4914,-262.6347 778.354,-273.6347"/>
<polygon fill="#a0a0a0" stroke="#a0a0a0" points="777.9403,-276.0547 785.3176,-275.2942 779.0762,-271.2882 777.9403,-276.0547"/>
<text text-anchor="middle" x="644.6784" y="-221.5" font-family="Helvetica,sans-Serif" font-size="9.00" fill="#000000">data_from</text>
</g>
<!-- slide_image&#45;&gt;slide -->
<g id="edge27" class="edge">
<title>slide_image-&gt;slide</title>
<path fill="none" stroke="#a0a0a0" stroke-dasharray="5,2" d="M458.3742,-186.1762C458.0138,-199.4403 457.7395,-215.3081 457.9136,-229.6 458.0433,-240.2561 458.2984,-251.9401 458.5626,-262.2643"/>
<polygon fill="#a0a0a0" stroke="#a0a0a0" points="458.3764,-186.0987 461.7297,-179.1938 458.4787,-182.6002 458.581,-179.1017 458.581,-179.1017 458.581,-179.1017 458.4787,-182.6002 455.4324,-179.0096 458.3764,-186.0987 458.3764,-186.0987"/>
<polygon fill="#a0a0a0" stroke="#a0a0a0" points="456.1198,-262.575 458.7548,-269.5075 461.0181,-262.4449 456.1198,-262.575"/>
<text text-anchor="middle" x="478.6784" y="-221.5" font-family="Helvetica,sans-Serif" font-size="9.00" fill="#000000">data_from</text>
</g>
<!-- submitted_aligned_reads&#45;&gt;core_metadata_collection -->
<g id="edge30" class="edge">
<title>submitted_aligned_reads-&gt;core_metadata_collection</title>
<path fill="none" stroke="#a0a0a0" stroke-dasharray="5,2" d="M1084.4636,-178.9122C1058.1219,-193.6677 1022.435,-213.2815 990.4235,-229.6 965.6299,-242.239 937.8079,-255.5296 914.2021,-266.5497"/>
<polygon fill="#a0a0a0" stroke="#a0a0a0" points="912.9733,-264.4192 907.6618,-269.5953 915.0418,-268.8612 912.9733,-264.4192"/>
<text text-anchor="middle" x="1028.6784" y="-221.5" font-family="Helvetica,sans-Serif" font-size="9.00" fill="#000000">data_from</text>
</g>
<!-- submitted_aligned_reads&#45;&gt;read_group -->
<g id="edge29" class="edge">
<title>submitted_aligned_reads-&gt;read_group</title>
<path fill="none" stroke="#a0a0a0" stroke-dasharray="5,2" d="M1123.9188,-179.0595C1124.4248,-201.7918 1125.2128,-237.2031 1125.7697,-262.2238"/>
<polygon fill="#a0a0a0" stroke="#a0a0a0" points="1123.3221,-262.3637 1125.9273,-269.3075 1128.2209,-262.2546 1123.3221,-262.3637"/>
<text text-anchor="middle" x="1144.6784" y="-221.5" font-family="Helvetica,sans-Serif" font-size="9.00" fill="#000000">data_from</text>
</g>
<!-- submitted_copy_number -->
<g id="node24" class="node">
<title>submitted_copy_number</title>
<path fill="#76b7b2" stroke="#000000" d="M1573.8187,-174.8C1573.8187,-174.8 1461.0282,-174.8 1461.0282,-174.8 1455.0282,-174.8 1449.0282,-168.8 1449.0282,-162.8 1449.0282,-162.8 1449.0282,-150.8 1449.0282,-150.8 1449.0282,-144.8 1455.0282,-138.8 1461.0282,-138.8 1461.0282,-138.8 1573.8187,-138.8 1573.8187,-138.8 1579.8187,-138.8 1585.8187,-144.8 1585.8187,-150.8 1585.8187,-150.8 1585.8187,-162.8 1585.8187,-162.8 1585.8187,-168.8 1579.8187,-174.8 1573.8187,-174.8"/>
<path fill="none" stroke="#000000" d="M1577.83,-178.8C1577.83,-178.8 1457.0169,-178.8 1457.0169,-178.8 1451.0169,-178.8 1445.0169,-172.8 1445.0169,-166.8 1445.0169,-166.8 1445.0169,-146.8 1445.0169,-146.8 1445.0169,-140.8 1451.0169,-134.8 1457.0169,-134.8 1457.0169,-134.8 1577.83,-134.8 1577.83,-134.8 1583.83,-134.8 1589.83,-140.8 1589.83,-146.8 1589.83,-146.8 1589.83,-166.8 1589.83,-166.8 1589.83,-172.8 1583.83,-178.8 1577.83,-178.8"/>
<text text-anchor="middle" x="1517.4235" y="-153.5" font-family="Helvetica,sans-Serif" font-size="11.00" fill="#000000">Submitted Copy Number</text>
</g>
<!-- submitted_copy_number&#45;&gt;core_metadata_collection -->
<g id="edge31" class="edge">
<title>submitted_copy_number-&gt;core_metadata_collection</title>
<path fill="none" stroke="#a0a0a0" stroke-dasharray="5,2" d="M1474.4096,-178.9096C1440.3069,-195.4694 1390.9727,-217.3052 1345.4235,-229.6 1307.3418,-239.8791 1069.287,-267.8133 941.0469,-282.4207"/>
<polygon fill="#a0a0a0" stroke="#a0a0a0" points="940.5715,-280.0089 933.8934,-283.2347 941.1255,-284.8775 940.5715,-280.0089"/>
<text text-anchor="middle" x="1399.6784" y="-221.5" font-family="Helvetica,sans-Serif" font-size="9.00" fill="#000000">data_from</text>
</g>
<!-- submitted_methylation -->
<g id="node25" class="node">
<title>submitted_methylation</title>
<path fill="#76b7b2" stroke="#000000" d="M659.7306,-174.8C659.7306,-174.8 559.1163,-174.8 559.1163,-174.8 553.1163,-174.8 547.1163,-168.8 547.1163,-162.8 547.1163,-162.8 547.1163,-150.8 547.1163,-150.8 547.1163,-144.8 553.1163,-138.8 559.1163,-138.8 559.1163,-138.8 659.7306,-138.8 659.7306,-138.8 665.7306,-138.8 671.7306,-144.8 671.7306,-150.8 671.7306,-150.8 671.7306,-162.8 671.7306,-162.8 671.7306,-168.8 665.7306,-174.8 659.7306,-174.8"/>
<path fill="none" stroke="#000000" d="M663.7246,-178.8C663.7246,-178.8 555.1223,-178.8 555.1223,-178.8 549.1223,-178.8 543.1223,-172.8 543.1223,-166.8 543.1223,-166.8 543.1223,-146.8 543.1223,-146.8 543.1223,-140.8 549.1223,-134.8 555.1223,-134.8 555.1223,-134.8 663.7246,-134.8 663.7246,-134.8 669.7246,-134.8 675.7246,-140.8 675.7246,-146.8 675.7246,-146.8 675.7246,-166.8 675.7246,-166.8 675.7246,-172.8 669.7246,-178.8 663.7246,-178.8"/>
<text text-anchor="middle" x="609.4235" y="-153.5" font-family="Helvetica,sans-Serif" font-size="11.00" fill="#000000">Submitted Methylation</text>
</g>
<!-- submitted_methylation&#45;&gt;aliquot -->
<g id="edge33" class="edge">
<title>submitted_methylation-&gt;aliquot</title>
<path fill="none" stroke="#a0a0a0" stroke-dasharray="5,2" d="M613.0106,-186.1055C619.3437,-237.8454 632.437,-344.8139 638.7976,-396.778"/>
<polygon fill="#a0a0a0" stroke="#a0a0a0" points="612.9745,-185.8106 615.2506,-178.4797 612.5493,-182.3366 612.124,-178.8625 612.124,-178.8625 612.124,-178.8625 612.5493,-182.3366 608.9973,-179.2453 612.9745,-185.8106 612.9745,-185.8106"/>
<polygon fill="#a0a0a0" stroke="#a0a0a0" points="636.4032,-397.3822 639.6856,-404.0327 641.2669,-396.7868 636.4032,-397.3822"/>
<text text-anchor="middle" x="648.6784" y="-288.9" font-family="Helvetica,sans-Serif" font-size="9.00" fill="#000000">data_from</text>
</g>
<!-- submitted_methylation&#45;&gt;core_metadata_collection -->
<g id="edge32" class="edge">
<title>submitted_methylation-&gt;core_metadata_collection</title>
<path fill="none" stroke="#a0a0a0" stroke-dasharray="5,2" d="M629.1565,-179.0548C644.2197,-194.9293 666.1919,-215.8212 688.9136,-229.6 716.3413,-246.2327 748.9296,-259.4435 778.2325,-269.3229"/>
<polygon fill="#a0a0a0" stroke="#a0a0a0" points="777.797,-271.7595 785.2123,-271.6348 779.3377,-267.108 777.797,-271.7595"/>
<text text-anchor="middle" x="709.6784" y="-221.5" font-family="Helvetica,sans-Serif" font-size="9.00" fill="#000000">data_from</text>
</g>
<!-- submitted_somatic_mutation -->
<g id="node26" class="node">
<title>submitted_somatic_mutation</title>
<path fill="#76b7b2" stroke="#000000" d="M1385.9633,-174.8C1385.9633,-174.8 1256.8836,-174.8 1256.8836,-174.8 1250.8836,-174.8 1244.8836,-168.8 1244.8836,-162.8 1244.8836,-162.8 1244.8836,-150.8 1244.8836,-150.8 1244.8836,-144.8 1250.8836,-138.8 1256.8836,-138.8 1256.8836,-138.8 1385.9633,-138.8 1385.9633,-138.8 1391.9633,-138.8 1397.9633,-144.8 1397.9633,-150.8 1397.9633,-150.8 1397.9633,-162.8 1397.9633,-162.8 1397.9633,-168.8 1391.9633,-174.8 1385.9633,-174.8"/>
<path fill="none" stroke="#000000" d="M1389.9516,-178.8C1389.9516,-178.8 1252.8953,-178.8 1252.8953,-178.8 1246.8953,-178.8 1240.8953,-172.8 1240.8953,-166.8 1240.8953,-166.8 1240.8953,-146.8 1240.8953,-146.8 1240.8953,-140.8 1246.8953,-134.8 1252.8953,-134.8 1252.8953,-134.8 1389.9516,-134.8 1389.9516,-134.8 1395.9516,-134.8 1401.9516,-140.8 1401.9516,-146.8 1401.9516,-146.8 1401.9516,-166.8 1401.9516,-166.8 1401.9516,-172.8 1395.9516,-178.8 1389.9516,-178.8"/>
<text text-anchor="middle" x="1321.4235" y="-153.5" font-family="Helvetica,sans-Serif" font-size="11.00" fill="#000000">Submitted Somatic Mutation</text>
</g>
<!-- submitted_somatic_mutation&#45;&gt;core_metadata_collection -->
<g id="edge34" class="edge">
<title>submitted_somatic_mutation-&gt;core_metadata_collection</title>
<path fill="none" stroke="#a0a0a0" stroke-dasharray="5,2" d="M1284.21,-178.8625C1255.4022,-195.0639 1214.0331,-216.4552 1175.4235,-229.6 1097.8071,-256.0249 1005.4128,-272.521 940.6451,-281.7919"/>
<polygon fill="#a0a0a0" stroke="#a0a0a0" points="940.2655,-279.3711 933.6773,-282.7767 940.9513,-284.2229 940.2655,-279.3711"/>
<text text-anchor="middle" x="1219.6784" y="-221.5" font-family="Helvetica,sans-Serif" font-size="9.00" fill="#000000">data_from</text>
</g>
<!-- submitted_somatic_mutation&#45;&gt;read_group -->
<g id="edge35" class="edge">
<title>submitted_somatic_mutation-&gt;read_group</title>
<path fill="none" stroke="#a0a0a0" stroke-dasharray="5,2" d="M1310.8533,-179.0598C1302.3601,-194.9368 1289.1089,-215.8296 1272.4235,-229.6 1244.0884,-252.9847 1205.6354,-268.8343 1175.3052,-278.6515"/>
<polygon fill="#a0a0a0" stroke="#a0a0a0" points="1174.5094,-276.3335 1168.5708,-280.7761 1175.9837,-281.0064 1174.5094,-276.3335"/>
<text text-anchor="middle" x="1308.676" y="-221.5" font-family="Helvetica,sans-Serif" font-size="9.00" fill="#000000">derived_from</text>
</g>
<!-- submitted_unaligned_reads&#45;&gt;core_metadata_collection -->
<g id="edge37" class="edge">
<title>submitted_unaligned_reads-&gt;core_metadata_collection</title>
<path fill="none" stroke="#a0a0a0" stroke-dasharray="5,2" d="M889.2474,-178.9232C875.8514,-189.2188 862.1686,-202.7597 854.9136,-218.8 848.8254,-232.2605 849.2228,-248.5717 851.459,-262.3398"/>
<polygon fill="#a0a0a0" stroke="#a0a0a0" points="849.0632,-262.8565 852.7714,-269.2793 853.8779,-261.9459 849.0632,-262.8565"/>
<text text-anchor="middle" x="875.6784" y="-221.5" font-family="Helvetica,sans-Serif" font-size="9.00" fill="#000000">data_from</text>
</g>
<!-- submitted_unaligned_reads&#45;&gt;read_group -->
<g id="edge36" class="edge">
<title>submitted_unaligned_reads-&gt;read_group</title>
<path fill="none" stroke="#a0a0a0" stroke-dasharray="5,2" d="M926.4,-185.833C928.3419,-200.5854 933.0369,-217.8312 943.9136,-229.6 962.2063,-249.3932 1029.736,-268.8244 1077.2995,-280.5129"/>
<polygon fill="#a0a0a0" stroke="#a0a0a0" points="926.3952,-185.7867 928.7851,-178.4921 926.024,-182.3064 925.6529,-178.8261 925.6529,-178.8261 925.6529,-178.8261 926.024,-182.3064 922.5207,-179.1601 926.3952,-185.7867 926.3952,-185.7867"/>
<polygon fill="#a0a0a0" stroke="#a0a0a0" points="1076.7834,-282.9087 1084.1639,-282.1804 1077.9401,-278.1472 1076.7834,-282.9087"/>
<text text-anchor="middle" x="963.6784" y="-221.5" font-family="Helvetica,sans-Serif" font-size="9.00" fill="#000000">data_from</text>
</g>
<!-- treatment -->
<g id="node28" class="node">
<title>treatment</title>
<path fill="#e15759" stroke="#000000" d="M552.5343,-579.2C552.5343,-579.2 510.3126,-579.2 510.3126,-579.2 504.3126,-579.2 498.3126,-573.2 498.3126,-567.2 498.3126,-567.2 498.3126,-555.2 498.3126,-555.2 498.3126,-549.2 504.3126,-543.2 510.3126,-543.2 510.3126,-543.2 552.5343,-543.2 552.5343,-543.2 558.5343,-543.2 564.5343,-549.2 564.5343,-555.2 564.5343,-555.2 564.5343,-567.2 564.5343,-567.2 564.5343,-573.2 558.5343,-579.2 552.5343,-579.2"/>
<path fill="none" stroke="#000000" d="M556.5406,-583.2C556.5406,-583.2 506.3063,-583.2 506.3063,-583.2 500.3063,-583.2 494.3063,-577.2 494.3063,-571.2 494.3063,-571.2 494.3063,-551.2 494.3063,-551.2 494.3063,-545.2 500.3063,-539.2 506.3063,-539.2 506.3063,-539.2 556.5406,-539.2 556.5406,-539.2 562.5406,-539.2 568.5406,-545.2 568.5406,-551.2 568.5406,-551.2 568.5406,-571.2 568.5406,-571.2 568.5406,-577.2 562.5406,-583.2 556.5406,-583.2"/>
<text text-anchor="middle" x="531.4235" y="-557.9" font-family="Helvetica,sans-Serif" font-size="11.00" fill="#000000">Treatment</text>
</g>
<!-- treatment&#45;&gt;diagnosis -->
<g id="edge38" class="edge">
<title>treatment-&gt;diagnosis</title>
<path fill="none" stroke="#4a6cf7" d="M546.5389,-589.8981C558.5444,-612.6916 575.2545,-644.4172 587.2699,-667.2296"/>
<polygon fill="#4a6cf7" stroke="#4a6cf7" points="546.4098,-589.6529 545.9347,-581.9915 544.7787,-586.5562 543.1477,-583.4595 543.1477,-583.4595 543.1477,-583.4595 544.7787,-586.5562 540.3606,-584.9275 546.4098,-589.6529 546.4098,-589.6529"/>
<polygon fill="#4a6cf7" stroke="#4a6cf7" points="585.252,-668.6558 590.6818,-673.7075 589.5874,-666.3723 585.252,-668.6558"/>
<text text-anchor="middle" x="588.6763" y="-625.9" font-family="Helvetica,sans-Serif" font-size="9.00" fill="#000000">describes</text>
</g>
</g>
</svg>